<mxfile host="app.diagrams.net" modified="2022-12-07T02:18:47.765Z" agent="5.0 (Windows NT 10.0; Win64; x64) AppleWebKit/537.36 (KHTML, like Gecko) Chrome/107.0.0.0 Safari/537.36" version="20.6.0" etag="gWZ9KCekhRalP5GFGwYD" type="github">
  <diagram id="7FYESjyVptRTW3Y7uaQc" name="페이지-1">
    <mxGraphModel dx="3076" dy="1931" grid="1" gridSize="10" guides="1" tooltips="1" connect="1" arrows="1" fold="1" page="1" pageScale="1" pageWidth="827" pageHeight="1169" math="0" shadow="0">
      <root>
        <mxCell id="0" />
        <mxCell id="1" parent="0" />
        <mxCell id="SfBJ0q2UiW4gp2E3zM0G-1" value="&lt;font&gt;[ TAP 멀티클러스터 구성 ]&lt;/font&gt;" style="rounded=1;whiteSpace=wrap;html=1;fillColor=none;strokeColor=#FF6666;dashed=1;strokeWidth=2;labelPosition=center;verticalLabelPosition=bottom;align=center;verticalAlign=top;fontSize=14;fontStyle=1;fontColor=#FF6666;" vertex="1" parent="1">
          <mxGeometry x="-960" y="932" width="1179.5" height="169" as="geometry" />
        </mxCell>
        <mxCell id="SfBJ0q2UiW4gp2E3zM0G-2" value="&lt;font style=&quot;font-size: 10px;&quot;&gt;Master node2 (API server)&lt;br style=&quot;&quot;&gt;&lt;i&gt;&lt;b&gt;&lt;font color=&quot;#990000&quot;&gt;cjenm-tkc01-control-plane&lt;/font&gt;&lt;/b&gt;&lt;/i&gt;&lt;/font&gt;" style="rounded=0;whiteSpace=wrap;html=1;fontFamily=Garamond;fontSize=11;strokeWidth=0.5;verticalAlign=bottom;" vertex="1" parent="1">
          <mxGeometry x="-116" y="768" width="138" height="136" as="geometry" />
        </mxCell>
        <mxCell id="SfBJ0q2UiW4gp2E3zM0G-3" value="TAP내 TEKTON&amp;nbsp;" style="whiteSpace=wrap;html=1;align=center;verticalAlign=top;treeFolding=1;treeMoving=1;newEdgeStyle={&quot;edgeStyle&quot;:&quot;elbowEdgeStyle&quot;,&quot;startArrow&quot;:&quot;none&quot;,&quot;endArrow&quot;:&quot;none&quot;};fontColor=#000000;fillColor=#FFCCCC;fontSize=10;" vertex="1" parent="1">
          <mxGeometry x="-913" y="992.47" width="99" height="93" as="geometry" />
        </mxCell>
        <mxCell id="SfBJ0q2UiW4gp2E3zM0G-4" value="서비스 실행 클러스터" style="swimlane;fontFamily=Helvetica;fontSize=10;align=left;spacingLeft=13;" vertex="1" parent="1">
          <mxGeometry x="-146" y="716.5" width="407" height="197.5" as="geometry" />
        </mxCell>
        <mxCell id="SfBJ0q2UiW4gp2E3zM0G-5" value="&lt;font style=&quot;font-size: 10px;&quot;&gt;Master node2 (API server)&lt;br style=&quot;&quot;&gt;&lt;i&gt;&lt;b&gt;&lt;font color=&quot;#990000&quot;&gt;cjenm-tkc01-control-plane&lt;/font&gt;&lt;/b&gt;&lt;/i&gt;&lt;/font&gt;" style="rounded=0;whiteSpace=wrap;html=1;fontFamily=Garamond;fontSize=11;strokeWidth=0.5;verticalAlign=bottom;" vertex="1" parent="SfBJ0q2UiW4gp2E3zM0G-4">
          <mxGeometry x="25" y="46.5" width="138" height="136" as="geometry" />
        </mxCell>
        <mxCell id="SfBJ0q2UiW4gp2E3zM0G-6" value="&lt;font style=&quot;font-size: 10px;&quot;&gt;Master1 (control-plane)&lt;br style=&quot;&quot;&gt;&lt;i&gt;&lt;b&gt;&lt;font color=&quot;#990000&quot;&gt;d[service]part-svc-control&lt;/font&gt;&lt;/b&gt;&lt;/i&gt;&lt;/font&gt;" style="rounded=0;whiteSpace=wrap;html=1;fontFamily=Garamond;fontSize=11;strokeWidth=0.5;verticalAlign=bottom;" vertex="1" parent="SfBJ0q2UiW4gp2E3zM0G-4">
          <mxGeometry x="20" y="40" width="139" height="138" as="geometry" />
        </mxCell>
        <mxCell id="SfBJ0q2UiW4gp2E3zM0G-7" value="" style="shape=image;verticalLabelPosition=bottom;labelBackgroundColor=default;verticalAlign=top;aspect=fixed;imageAspect=0;image=https://raw.githubusercontent.com/cncf/artwork/master/projects/etcd/stacked/color/etcd-stacked-color.png;" vertex="1" parent="SfBJ0q2UiW4gp2E3zM0G-4">
          <mxGeometry x="79.96000000000002" y="125.5" width="20.07" height="22" as="geometry" />
        </mxCell>
        <mxCell id="SfBJ0q2UiW4gp2E3zM0G-8" value="&lt;font style=&quot;font-size: 9px;&quot;&gt;scheduler&lt;br&gt;&lt;/font&gt;" style="rounded=0;whiteSpace=wrap;html=1;fontFamily=Garamond;fontSize=7;verticalAlign=middle;spacingTop=0;strokeWidth=0;" vertex="1" parent="SfBJ0q2UiW4gp2E3zM0G-4">
          <mxGeometry x="25" y="46.5" width="43" height="16" as="geometry" />
        </mxCell>
        <mxCell id="SfBJ0q2UiW4gp2E3zM0G-9" value="&lt;font style=&quot;font-size: 9px;&quot;&gt;kube ctr&lt;br&gt;&lt;/font&gt;" style="rounded=0;whiteSpace=wrap;html=1;fontFamily=Garamond;fontSize=7;verticalAlign=middle;spacingTop=0;strokeWidth=0;" vertex="1" parent="SfBJ0q2UiW4gp2E3zM0G-4">
          <mxGeometry x="70.97000000000003" y="46.5" width="38" height="16" as="geometry" />
        </mxCell>
        <mxCell id="SfBJ0q2UiW4gp2E3zM0G-10" value="&lt;font style=&quot;font-size: 9px;&quot;&gt;cloud ctr&lt;br&gt;&lt;/font&gt;" style="rounded=0;whiteSpace=wrap;html=1;fontFamily=Garamond;fontSize=7;verticalAlign=middle;spacingTop=0;strokeWidth=0;" vertex="1" parent="SfBJ0q2UiW4gp2E3zM0G-4">
          <mxGeometry x="112" y="46.5" width="42" height="16" as="geometry" />
        </mxCell>
        <mxCell id="SfBJ0q2UiW4gp2E3zM0G-11" value="&lt;font style=&quot;font-size: 9px;&quot;&gt;API Server&lt;br&gt;&lt;/font&gt;" style="rounded=0;whiteSpace=wrap;html=1;fontFamily=Garamond;fontSize=7;verticalAlign=middle;spacingTop=0;strokeWidth=0;fillColor=#fa6800;fontColor=#FFFFFF;strokeColor=#C73500;fontStyle=1" vertex="1" parent="SfBJ0q2UiW4gp2E3zM0G-4">
          <mxGeometry x="68.5" y="81.5" width="43" height="24" as="geometry" />
        </mxCell>
        <mxCell id="SfBJ0q2UiW4gp2E3zM0G-12" value="" style="endArrow=classic;html=1;rounded=0;fontFamily=Helvetica;strokeWidth=0.5;curved=1;exitX=1;exitY=0.5;exitDx=0;exitDy=0;entryX=0.002;entryY=0.445;entryDx=0;entryDy=0;entryPerimeter=0;" edge="1" parent="SfBJ0q2UiW4gp2E3zM0G-4" source="SfBJ0q2UiW4gp2E3zM0G-11" target="SfBJ0q2UiW4gp2E3zM0G-21">
          <mxGeometry width="50" height="50" relative="1" as="geometry">
            <mxPoint x="175" y="288.5" as="sourcePoint" />
            <mxPoint x="195" y="278.5" as="targetPoint" />
          </mxGeometry>
        </mxCell>
        <mxCell id="SfBJ0q2UiW4gp2E3zM0G-13" value="" style="endArrow=blockThin;html=1;rounded=0;fontFamily=Helvetica;strokeWidth=0.5;curved=1;strokeColor=#B3B3B3;endFill=1;startArrow=blockThin;startFill=1;entryX=0.5;entryY=1;entryDx=0;entryDy=0;exitX=0.5;exitY=0;exitDx=0;exitDy=0;" edge="1" parent="SfBJ0q2UiW4gp2E3zM0G-4" source="SfBJ0q2UiW4gp2E3zM0G-11" target="SfBJ0q2UiW4gp2E3zM0G-8">
          <mxGeometry width="50" height="50" relative="1" as="geometry">
            <mxPoint x="165" y="278.5" as="sourcePoint" />
            <mxPoint x="185" y="268.5" as="targetPoint" />
          </mxGeometry>
        </mxCell>
        <mxCell id="SfBJ0q2UiW4gp2E3zM0G-14" value="" style="endArrow=blockThin;html=1;rounded=0;fontFamily=Helvetica;strokeWidth=0.5;curved=1;strokeColor=#B3B3B3;endFill=1;startArrow=blockThin;startFill=1;entryX=0.5;entryY=1;entryDx=0;entryDy=0;exitX=0.5;exitY=0;exitDx=0;exitDy=0;" edge="1" parent="SfBJ0q2UiW4gp2E3zM0G-4" source="SfBJ0q2UiW4gp2E3zM0G-11" target="SfBJ0q2UiW4gp2E3zM0G-9">
          <mxGeometry width="50" height="50" relative="1" as="geometry">
            <mxPoint x="90" y="88.5" as="sourcePoint" />
            <mxPoint x="195" y="278.4999999999999" as="targetPoint" />
          </mxGeometry>
        </mxCell>
        <mxCell id="SfBJ0q2UiW4gp2E3zM0G-15" value="" style="endArrow=blockThin;html=1;rounded=0;fontFamily=Helvetica;strokeWidth=0.5;curved=1;strokeColor=#B3B3B3;endFill=1;startArrow=blockThin;startFill=1;entryX=0.5;entryY=1;entryDx=0;entryDy=0;exitX=0.5;exitY=0;exitDx=0;exitDy=0;" edge="1" parent="SfBJ0q2UiW4gp2E3zM0G-4" source="SfBJ0q2UiW4gp2E3zM0G-11" target="SfBJ0q2UiW4gp2E3zM0G-10">
          <mxGeometry width="50" height="50" relative="1" as="geometry">
            <mxPoint x="185" y="298.4999999999999" as="sourcePoint" />
            <mxPoint x="205" y="288.4999999999999" as="targetPoint" />
          </mxGeometry>
        </mxCell>
        <mxCell id="SfBJ0q2UiW4gp2E3zM0G-16" value="" style="endArrow=blockThin;html=1;rounded=0;fontFamily=Helvetica;strokeWidth=0.5;curved=1;strokeColor=#B3B3B3;endFill=1;startArrow=blockThin;startFill=1;entryX=0.5;entryY=1;entryDx=0;entryDy=0;exitX=0.5;exitY=0;exitDx=0;exitDy=0;" edge="1" parent="SfBJ0q2UiW4gp2E3zM0G-4" source="SfBJ0q2UiW4gp2E3zM0G-7" target="SfBJ0q2UiW4gp2E3zM0G-11">
          <mxGeometry width="50" height="50" relative="1" as="geometry">
            <mxPoint x="195" y="308.4999999999999" as="sourcePoint" />
            <mxPoint x="215" y="298.4999999999999" as="targetPoint" />
          </mxGeometry>
        </mxCell>
        <mxCell id="SfBJ0q2UiW4gp2E3zM0G-17" value="&lt;font style=&quot;font-size: 9px;&quot;&gt;VIP : 172.17.167.21&lt;/font&gt;" style="rounded=1;whiteSpace=wrap;html=1;labelBackgroundColor=none;strokeColor=#666666;strokeWidth=1;fontFamily=Helvetica;fontSize=7;fontColor=#FFFFFF;fillColor=#666666;spacing=0;spacingBottom=3;" vertex="1" parent="SfBJ0q2UiW4gp2E3zM0G-4">
          <mxGeometry x="245.02999999999997" y="3.5" width="98" height="17" as="geometry" />
        </mxCell>
        <mxCell id="SfBJ0q2UiW4gp2E3zM0G-18" value="" style="group" vertex="1" connectable="0" parent="SfBJ0q2UiW4gp2E3zM0G-4">
          <mxGeometry x="185" y="40" width="192" height="139" as="geometry" />
        </mxCell>
        <mxCell id="SfBJ0q2UiW4gp2E3zM0G-19" value="" style="rounded=0;whiteSpace=wrap;html=1;fontFamily=Garamond;fontSize=10;strokeWidth=0.5;verticalAlign=bottom;" vertex="1" parent="SfBJ0q2UiW4gp2E3zM0G-18">
          <mxGeometry x="13" y="13" width="173" height="120" as="geometry" />
        </mxCell>
        <mxCell id="SfBJ0q2UiW4gp2E3zM0G-20" value="" style="rounded=0;whiteSpace=wrap;html=1;fontFamily=Garamond;fontSize=10;strokeWidth=0.5;verticalAlign=bottom;" vertex="1" parent="SfBJ0q2UiW4gp2E3zM0G-18">
          <mxGeometry x="6" y="7" width="173" height="120" as="geometry" />
        </mxCell>
        <mxCell id="SfBJ0q2UiW4gp2E3zM0G-21" value="Worker node1 (md)&lt;br style=&quot;font-size: 10px;&quot;&gt;&lt;i&gt;&lt;b&gt;&lt;font color=&quot;#990000&quot;&gt;d[service]part-app-worker&lt;/font&gt;&lt;/b&gt;&lt;/i&gt;" style="rounded=0;whiteSpace=wrap;html=1;fontFamily=Garamond;fontSize=10;strokeWidth=0.5;verticalAlign=bottom;" vertex="1" parent="SfBJ0q2UiW4gp2E3zM0G-18">
          <mxGeometry width="172" height="120" as="geometry" />
        </mxCell>
        <mxCell id="SfBJ0q2UiW4gp2E3zM0G-22" value="" style="rounded=1;whiteSpace=wrap;html=1;fontFamily=Helvetica;dashed=1;dashPattern=1 1;strokeWidth=0.5;" vertex="1" parent="SfBJ0q2UiW4gp2E3zM0G-18">
          <mxGeometry x="26" y="6.5" width="120" height="43" as="geometry" />
        </mxCell>
        <mxCell id="SfBJ0q2UiW4gp2E3zM0G-23" value="" style="group" vertex="1" connectable="0" parent="SfBJ0q2UiW4gp2E3zM0G-18">
          <mxGeometry x="97" y="9" width="41" height="37" as="geometry" />
        </mxCell>
        <mxCell id="SfBJ0q2UiW4gp2E3zM0G-24" value="&lt;font style=&quot;font-size: 9px;&quot;&gt;Proxy&lt;/font&gt;" style="rounded=0;whiteSpace=wrap;html=1;fontFamily=Garamond;fontSize=7;verticalAlign=top;spacingTop=-6;strokeWidth=0;" vertex="1" parent="SfBJ0q2UiW4gp2E3zM0G-23">
          <mxGeometry width="41" height="37" as="geometry" />
        </mxCell>
        <mxCell id="SfBJ0q2UiW4gp2E3zM0G-25" value="" style="shape=image;verticalLabelPosition=bottom;labelBackgroundColor=default;verticalAlign=top;aspect=fixed;imageAspect=0;image=https://www.datocms-assets.com/2885/1539054767-consulenvoyhashiblog2400x1200.jpg;clipPath=inset(21.33% 12.33% 18.67% 54.33%);" vertex="1" parent="SfBJ0q2UiW4gp2E3zM0G-23">
          <mxGeometry x="6.380000000000109" y="12" width="27.78" height="25" as="geometry" />
        </mxCell>
        <mxCell id="SfBJ0q2UiW4gp2E3zM0G-26" value="" style="endArrow=classic;startArrow=classic;html=1;rounded=0;fontFamily=Garamond;fontSize=10;dashed=1;fillColor=#1ba1e2;strokeColor=#006EAF;curved=1;exitX=1;exitY=0.5;exitDx=0;exitDy=0;" edge="1" parent="SfBJ0q2UiW4gp2E3zM0G-18" source="SfBJ0q2UiW4gp2E3zM0G-28" target="SfBJ0q2UiW4gp2E3zM0G-24">
          <mxGeometry width="50" height="50" relative="1" as="geometry">
            <mxPoint x="123" y="-17" as="sourcePoint" />
            <mxPoint x="163" y="-17.5" as="targetPoint" />
          </mxGeometry>
        </mxCell>
        <mxCell id="SfBJ0q2UiW4gp2E3zM0G-27" value="" style="group" vertex="1" connectable="0" parent="SfBJ0q2UiW4gp2E3zM0G-18">
          <mxGeometry x="33" y="9.5" width="41.699999999999996" height="40" as="geometry" />
        </mxCell>
        <mxCell id="SfBJ0q2UiW4gp2E3zM0G-28" value="&lt;font style=&quot;font-size: 2px;&quot;&gt;Ingress&lt;/font&gt;" style="rounded=0;whiteSpace=wrap;html=1;fontFamily=Garamond;fontSize=2;verticalAlign=top;spacingTop=-6;strokeWidth=0;" vertex="1" parent="SfBJ0q2UiW4gp2E3zM0G-27">
          <mxGeometry width="41" height="37" as="geometry" />
        </mxCell>
        <mxCell id="SfBJ0q2UiW4gp2E3zM0G-29" value="" style="shape=image;verticalLabelPosition=bottom;labelBackgroundColor=default;verticalAlign=top;aspect=fixed;imageAspect=0;image=https://blogs.vmware.com/opensource/files/2022/05/image001.png;" vertex="1" parent="SfBJ0q2UiW4gp2E3zM0G-27">
          <mxGeometry x="3.26" y="11" width="34.44" height="26" as="geometry" />
        </mxCell>
        <mxCell id="SfBJ0q2UiW4gp2E3zM0G-30" value="" style="sketch=0;html=1;dashed=0;whitespace=wrap;fillColor=#009600;strokeColor=#ffffff;points=[[0.005,0.63,0],[0.1,0.2,0],[0.9,0.2,0],[0.5,0,0],[0.995,0.63,0],[0.72,0.99,0],[0.5,1,0],[0.28,0.99,0]];verticalLabelPosition=bottom;align=center;verticalAlign=top;shape=mxgraph.kubernetes.icon;prIcon=pod;labelBackgroundColor=#FFFFFF;strokeWidth=1;fontFamily=Helvetica;fontSize=2;fontColor=#3333FF;" vertex="1" parent="SfBJ0q2UiW4gp2E3zM0G-18">
          <mxGeometry x="9" y="67" width="28" height="25" as="geometry" />
        </mxCell>
        <mxCell id="SfBJ0q2UiW4gp2E3zM0G-31" value="" style="sketch=0;html=1;dashed=0;whitespace=wrap;fillColor=#2875E2;strokeColor=#ffffff;points=[[0.005,0.63,0],[0.1,0.2,0],[0.9,0.2,0],[0.5,0,0],[0.995,0.63,0],[0.72,0.99,0],[0.5,1,0],[0.28,0.99,0]];verticalLabelPosition=bottom;align=center;verticalAlign=top;shape=mxgraph.kubernetes.icon;prIcon=pod;labelBackgroundColor=#FFFFFF;strokeWidth=1;fontFamily=Helvetica;fontSize=2;fontColor=#3333FF;" vertex="1" parent="SfBJ0q2UiW4gp2E3zM0G-18">
          <mxGeometry x="40" y="67" width="28" height="25" as="geometry" />
        </mxCell>
        <mxCell id="SfBJ0q2UiW4gp2E3zM0G-32" value="" style="sketch=0;html=1;dashed=0;whitespace=wrap;fillColor=#2875E2;strokeColor=#ffffff;points=[[0.005,0.63,0],[0.1,0.2,0],[0.9,0.2,0],[0.5,0,0],[0.995,0.63,0],[0.72,0.99,0],[0.5,1,0],[0.28,0.99,0]];verticalLabelPosition=bottom;align=center;verticalAlign=top;shape=mxgraph.kubernetes.icon;prIcon=pod;labelBackgroundColor=#FFFFFF;strokeWidth=1;fontFamily=Helvetica;fontSize=2;fontColor=#3333FF;" vertex="1" parent="SfBJ0q2UiW4gp2E3zM0G-18">
          <mxGeometry x="71" y="67" width="28" height="25" as="geometry" />
        </mxCell>
        <mxCell id="SfBJ0q2UiW4gp2E3zM0G-33" value="" style="sketch=0;html=1;dashed=0;whitespace=wrap;fillColor=#2875E2;strokeColor=#ffffff;points=[[0.005,0.63,0],[0.1,0.2,0],[0.9,0.2,0],[0.5,0,0],[0.995,0.63,0],[0.72,0.99,0],[0.5,1,0],[0.28,0.99,0]];verticalLabelPosition=bottom;align=center;verticalAlign=top;shape=mxgraph.kubernetes.icon;prIcon=pod;labelBackgroundColor=#FFFFFF;strokeWidth=1;fontFamily=Helvetica;fontSize=2;fontColor=#3333FF;" vertex="1" parent="SfBJ0q2UiW4gp2E3zM0G-18">
          <mxGeometry x="102" y="67" width="28" height="25" as="geometry" />
        </mxCell>
        <mxCell id="SfBJ0q2UiW4gp2E3zM0G-34" value="" style="curved=1;endArrow=classic;html=1;rounded=0;strokeColor=#006EAF;strokeWidth=0.5;fontFamily=Helvetica;fontSize=10;fillColor=#1ba1e2;exitX=0.5;exitY=1;exitDx=0;exitDy=0;entryX=0.5;entryY=0;entryDx=0;entryDy=0;entryPerimeter=0;dashed=1;" edge="1" parent="SfBJ0q2UiW4gp2E3zM0G-18" source="SfBJ0q2UiW4gp2E3zM0G-24" target="SfBJ0q2UiW4gp2E3zM0G-31">
          <mxGeometry width="50" height="50" relative="1" as="geometry">
            <mxPoint x="102" y="49.5" as="sourcePoint" />
            <mxPoint x="47" y="79.5" as="targetPoint" />
            <Array as="points">
              <mxPoint x="90" y="60" />
              <mxPoint x="70" y="50" />
            </Array>
          </mxGeometry>
        </mxCell>
        <mxCell id="SfBJ0q2UiW4gp2E3zM0G-35" value="" style="sketch=0;html=1;dashed=0;whitespace=wrap;fillColor=#2875E2;strokeColor=#ffffff;points=[[0.005,0.63,0],[0.1,0.2,0],[0.9,0.2,0],[0.5,0,0],[0.995,0.63,0],[0.72,0.99,0],[0.5,1,0],[0.28,0.99,0]];verticalLabelPosition=bottom;align=center;verticalAlign=top;shape=mxgraph.kubernetes.icon;prIcon=pod;labelBackgroundColor=#FFFFFF;strokeWidth=1;fontFamily=Helvetica;fontSize=2;fontColor=#3333FF;" vertex="1" parent="SfBJ0q2UiW4gp2E3zM0G-18">
          <mxGeometry x="134" y="67" width="28" height="25" as="geometry" />
        </mxCell>
        <mxCell id="SfBJ0q2UiW4gp2E3zM0G-36" style="edgeStyle=orthogonalEdgeStyle;rounded=0;orthogonalLoop=1;jettySize=auto;html=1;exitX=0.5;exitY=1;exitDx=0;exitDy=0;strokeColor=#6F0000;strokeWidth=0.5;fontFamily=Helvetica;fontSize=10;fillColor=#a20025;curved=1;entryX=0.5;entryY=0;entryDx=0;entryDy=0;" edge="1" parent="1" source="SfBJ0q2UiW4gp2E3zM0G-37" target="SfBJ0q2UiW4gp2E3zM0G-24">
          <mxGeometry relative="1" as="geometry">
            <mxPoint x="-860" y="737" as="targetPoint" />
            <Array as="points">
              <mxPoint x="-458" y="620" />
              <mxPoint x="157" y="620" />
            </Array>
          </mxGeometry>
        </mxCell>
        <mxCell id="SfBJ0q2UiW4gp2E3zM0G-37" value="AVI (Load Balancer)&lt;br&gt;&lt;i&gt;&lt;b&gt;&lt;font color=&quot;#990000&quot;&gt;dtanzuAvi&lt;/font&gt;&lt;/b&gt;&lt;/i&gt;" style="rounded=0;whiteSpace=wrap;html=1;fontFamily=Garamond;fontSize=8;verticalAlign=top;spacingTop=-4;strokeWidth=1;" vertex="1" parent="1">
          <mxGeometry x="-513.5" y="505" width="110" height="60" as="geometry" />
        </mxCell>
        <mxCell id="SfBJ0q2UiW4gp2E3zM0G-38" value="" style="shape=image;verticalLabelPosition=bottom;labelBackgroundColor=default;verticalAlign=top;aspect=fixed;imageAspect=0;image=https://vraccoon.com/wp-content/uploads/2021/05/avi-logo-1.png;clipPath=inset(5.33% 3.39% 23.67% 6.36% round 24%);" vertex="1" parent="1">
          <mxGeometry x="-473.5" y="532" width="30" height="30" as="geometry" />
        </mxCell>
        <mxCell id="SfBJ0q2UiW4gp2E3zM0G-39" value="tanzu 관리 클러스터" style="swimlane;strokeWidth=1;fontFamily=Helvetica;fontSize=10;align=left;spacingLeft=13;" vertex="1" parent="1">
          <mxGeometry x="-1274" y="718.5" width="183" height="232.5" as="geometry" />
        </mxCell>
        <mxCell id="SfBJ0q2UiW4gp2E3zM0G-40" value="&lt;font style=&quot;font-size: 10px;&quot;&gt;Worker node (md)&lt;br&gt;&lt;b&gt;&lt;i&gt;&lt;font color=&quot;#990000&quot;&gt;dtanzu-mgt-md&lt;/font&gt;&lt;/i&gt;&lt;/b&gt;&lt;/font&gt;" style="rounded=0;whiteSpace=wrap;html=1;fontFamily=Garamond;fontSize=11;strokeWidth=0.5;verticalAlign=bottom;" vertex="1" parent="SfBJ0q2UiW4gp2E3zM0G-39">
          <mxGeometry x="21.5" y="162" width="140" height="59" as="geometry" />
        </mxCell>
        <mxCell id="SfBJ0q2UiW4gp2E3zM0G-41" value="" style="endArrow=classic;html=1;rounded=0;fontFamily=Helvetica;exitX=0.5;exitY=1;exitDx=0;exitDy=0;strokeWidth=0.5;curved=1;" edge="1" parent="SfBJ0q2UiW4gp2E3zM0G-39" source="SfBJ0q2UiW4gp2E3zM0G-45" target="SfBJ0q2UiW4gp2E3zM0G-40">
          <mxGeometry width="50" height="50" relative="1" as="geometry">
            <mxPoint x="91" y="142" as="sourcePoint" />
            <mxPoint x="56.5" y="287" as="targetPoint" />
          </mxGeometry>
        </mxCell>
        <mxCell id="SfBJ0q2UiW4gp2E3zM0G-42" value="" style="sketch=0;html=1;dashed=0;whitespace=wrap;fillColor=#2875E2;strokeColor=#ffffff;points=[[0.005,0.63,0],[0.1,0.2,0],[0.9,0.2,0],[0.5,0,0],[0.995,0.63,0],[0.72,0.99,0],[0.5,1,0],[0.28,0.99,0]];verticalLabelPosition=bottom;align=center;verticalAlign=top;shape=mxgraph.kubernetes.icon;prIcon=pod;labelBackgroundColor=#FFFFFF;strokeWidth=1;fontFamily=Helvetica;fontSize=2;fontColor=#3333FF;" vertex="1" parent="SfBJ0q2UiW4gp2E3zM0G-39">
          <mxGeometry x="31" y="168" width="28" height="25" as="geometry" />
        </mxCell>
        <mxCell id="SfBJ0q2UiW4gp2E3zM0G-43" value="" style="sketch=0;html=1;dashed=0;whitespace=wrap;fillColor=#2875E2;strokeColor=#ffffff;points=[[0.005,0.63,0],[0.1,0.2,0],[0.9,0.2,0],[0.5,0,0],[0.995,0.63,0],[0.72,0.99,0],[0.5,1,0],[0.28,0.99,0]];verticalLabelPosition=bottom;align=center;verticalAlign=top;shape=mxgraph.kubernetes.icon;prIcon=pod;labelBackgroundColor=#FFFFFF;strokeWidth=1;fontFamily=Helvetica;fontSize=2;fontColor=#3333FF;" vertex="1" parent="SfBJ0q2UiW4gp2E3zM0G-39">
          <mxGeometry x="62" y="168" width="28" height="25" as="geometry" />
        </mxCell>
        <mxCell id="SfBJ0q2UiW4gp2E3zM0G-44" value="" style="sketch=0;html=1;dashed=0;whitespace=wrap;fillColor=#2875E2;strokeColor=#ffffff;points=[[0.005,0.63,0],[0.1,0.2,0],[0.9,0.2,0],[0.5,0,0],[0.995,0.63,0],[0.72,0.99,0],[0.5,1,0],[0.28,0.99,0]];verticalLabelPosition=bottom;align=center;verticalAlign=top;shape=mxgraph.kubernetes.icon;prIcon=pod;labelBackgroundColor=#FFFFFF;strokeWidth=1;fontFamily=Helvetica;fontSize=2;fontColor=#3333FF;" vertex="1" parent="SfBJ0q2UiW4gp2E3zM0G-39">
          <mxGeometry x="93" y="168" width="28" height="25" as="geometry" />
        </mxCell>
        <mxCell id="SfBJ0q2UiW4gp2E3zM0G-45" value="&lt;font style=&quot;font-size: 10px;&quot;&gt;Master (control-plane)&lt;br style=&quot;&quot;&gt;&lt;i&gt;&lt;b&gt;&lt;font color=&quot;#990000&quot;&gt;dtanzu-mgt-control&lt;/font&gt;&lt;/b&gt;&lt;/i&gt;&lt;/font&gt;" style="rounded=0;whiteSpace=wrap;html=1;fontFamily=Garamond;fontSize=11;strokeWidth=0.5;verticalAlign=bottom;" vertex="1" parent="SfBJ0q2UiW4gp2E3zM0G-39">
          <mxGeometry x="21.5" y="28.5" width="139" height="121.5" as="geometry" />
        </mxCell>
        <mxCell id="SfBJ0q2UiW4gp2E3zM0G-46" value="" style="shape=image;verticalLabelPosition=bottom;labelBackgroundColor=default;verticalAlign=top;aspect=fixed;imageAspect=0;image=https://raw.githubusercontent.com/cncf/artwork/master/projects/etcd/stacked/color/etcd-stacked-color.png;" vertex="1" parent="SfBJ0q2UiW4gp2E3zM0G-39">
          <mxGeometry x="81.46" y="97" width="20.98" height="23" as="geometry" />
        </mxCell>
        <mxCell id="SfBJ0q2UiW4gp2E3zM0G-47" value="&lt;font style=&quot;font-size: 9px;&quot;&gt;scheduler&lt;br&gt;&lt;/font&gt;" style="rounded=0;whiteSpace=wrap;html=1;fontFamily=Garamond;fontSize=7;verticalAlign=middle;spacingTop=0;strokeWidth=0;" vertex="1" parent="SfBJ0q2UiW4gp2E3zM0G-39">
          <mxGeometry x="26.5" y="33" width="43" height="16" as="geometry" />
        </mxCell>
        <mxCell id="SfBJ0q2UiW4gp2E3zM0G-48" value="&lt;font style=&quot;font-size: 9px;&quot;&gt;kube ctr&lt;br&gt;&lt;/font&gt;" style="rounded=0;whiteSpace=wrap;html=1;fontFamily=Garamond;fontSize=7;verticalAlign=middle;spacingTop=0;strokeWidth=0;" vertex="1" parent="SfBJ0q2UiW4gp2E3zM0G-39">
          <mxGeometry x="72.47000000000003" y="33" width="38" height="16" as="geometry" />
        </mxCell>
        <mxCell id="SfBJ0q2UiW4gp2E3zM0G-49" value="&lt;font style=&quot;font-size: 9px;&quot;&gt;cloud ctr&lt;br&gt;&lt;/font&gt;" style="rounded=0;whiteSpace=wrap;html=1;fontFamily=Garamond;fontSize=7;verticalAlign=middle;spacingTop=0;strokeWidth=0;" vertex="1" parent="SfBJ0q2UiW4gp2E3zM0G-39">
          <mxGeometry x="113.5" y="33" width="42" height="16" as="geometry" />
        </mxCell>
        <mxCell id="SfBJ0q2UiW4gp2E3zM0G-50" value="&lt;font style=&quot;font-size: 9px;&quot;&gt;API Server&lt;br&gt;&lt;/font&gt;" style="rounded=0;whiteSpace=wrap;html=1;fontFamily=Garamond;fontSize=7;verticalAlign=middle;spacingTop=0;strokeWidth=0;fillColor=#fa6800;fontColor=#FFFFFF;strokeColor=#C73500;fontStyle=1" vertex="1" parent="SfBJ0q2UiW4gp2E3zM0G-39">
          <mxGeometry x="65.72" y="65" width="51.5" height="14" as="geometry" />
        </mxCell>
        <mxCell id="SfBJ0q2UiW4gp2E3zM0G-51" value="" style="endArrow=blockThin;html=1;rounded=0;fontFamily=Helvetica;strokeWidth=0.5;curved=1;strokeColor=#B3B3B3;endFill=1;startArrow=blockThin;startFill=1;entryX=0.5;entryY=1;entryDx=0;entryDy=0;exitX=0.5;exitY=0;exitDx=0;exitDy=0;" edge="1" parent="SfBJ0q2UiW4gp2E3zM0G-39" source="SfBJ0q2UiW4gp2E3zM0G-50" target="SfBJ0q2UiW4gp2E3zM0G-47">
          <mxGeometry width="50" height="50" relative="1" as="geometry">
            <mxPoint x="110.5" y="217" as="sourcePoint" />
            <mxPoint x="130.5" y="207" as="targetPoint" />
          </mxGeometry>
        </mxCell>
        <mxCell id="SfBJ0q2UiW4gp2E3zM0G-52" value="" style="endArrow=blockThin;html=1;rounded=0;fontFamily=Helvetica;strokeWidth=0.5;curved=1;strokeColor=#B3B3B3;endFill=1;startArrow=blockThin;startFill=1;entryX=0.5;entryY=1;entryDx=0;entryDy=0;exitX=0.5;exitY=0;exitDx=0;exitDy=0;" edge="1" parent="SfBJ0q2UiW4gp2E3zM0G-39" source="SfBJ0q2UiW4gp2E3zM0G-50" target="SfBJ0q2UiW4gp2E3zM0G-48">
          <mxGeometry width="50" height="50" relative="1" as="geometry">
            <mxPoint x="35.5" y="27" as="sourcePoint" />
            <mxPoint x="140.5" y="216.9999999999999" as="targetPoint" />
          </mxGeometry>
        </mxCell>
        <mxCell id="SfBJ0q2UiW4gp2E3zM0G-53" value="" style="endArrow=blockThin;html=1;rounded=0;fontFamily=Helvetica;strokeWidth=0.5;curved=1;strokeColor=#B3B3B3;endFill=1;startArrow=blockThin;startFill=1;entryX=0.5;entryY=1;entryDx=0;entryDy=0;exitX=0.5;exitY=0;exitDx=0;exitDy=0;" edge="1" parent="SfBJ0q2UiW4gp2E3zM0G-39" source="SfBJ0q2UiW4gp2E3zM0G-50" target="SfBJ0q2UiW4gp2E3zM0G-49">
          <mxGeometry width="50" height="50" relative="1" as="geometry">
            <mxPoint x="130.5" y="236.9999999999999" as="sourcePoint" />
            <mxPoint x="150.5" y="226.9999999999999" as="targetPoint" />
          </mxGeometry>
        </mxCell>
        <mxCell id="SfBJ0q2UiW4gp2E3zM0G-54" value="" style="endArrow=blockThin;html=1;rounded=0;fontFamily=Helvetica;strokeWidth=0.5;curved=1;strokeColor=#B3B3B3;endFill=1;startArrow=blockThin;startFill=1;entryX=0.5;entryY=1;entryDx=0;entryDy=0;exitX=0.5;exitY=0;exitDx=0;exitDy=0;" edge="1" parent="SfBJ0q2UiW4gp2E3zM0G-39" source="SfBJ0q2UiW4gp2E3zM0G-46" target="SfBJ0q2UiW4gp2E3zM0G-50">
          <mxGeometry width="50" height="50" relative="1" as="geometry">
            <mxPoint x="140.5" y="246.9999999999999" as="sourcePoint" />
            <mxPoint x="160.5" y="236.9999999999999" as="targetPoint" />
          </mxGeometry>
        </mxCell>
        <mxCell id="SfBJ0q2UiW4gp2E3zM0G-55" value="" style="sketch=0;html=1;dashed=0;whitespace=wrap;fillColor=#009600;strokeColor=#ffffff;points=[[0.005,0.63,0],[0.1,0.2,0],[0.9,0.2,0],[0.5,0,0],[0.995,0.63,0],[0.72,0.99,0],[0.5,1,0],[0.28,0.99,0]];verticalLabelPosition=bottom;align=center;verticalAlign=top;shape=mxgraph.kubernetes.icon;prIcon=pod;labelBackgroundColor=#FFFFFF;strokeWidth=1;fontFamily=Helvetica;fontSize=2;fontColor=#3333FF;" vertex="1" parent="SfBJ0q2UiW4gp2E3zM0G-39">
          <mxGeometry x="125" y="168" width="28" height="25" as="geometry" />
        </mxCell>
        <mxCell id="SfBJ0q2UiW4gp2E3zM0G-56" value="L4&amp;nbsp;" style="rounded=0;whiteSpace=wrap;html=1;fontFamily=Garamond;fontSize=13;verticalAlign=middle;spacingTop=0;strokeWidth=1;fillColor=#6d8764;fontColor=#ffffff;strokeColor=#3A5431;" vertex="1" parent="1">
          <mxGeometry x="-513.5" y="438" width="110" height="30" as="geometry" />
        </mxCell>
        <mxCell id="SfBJ0q2UiW4gp2E3zM0G-57" value="" style="endArrow=classic;html=1;rounded=0;strokeColor=#006EAF;strokeWidth=0.5;fontFamily=Helvetica;fontSize=13;fontColor=#990000;curved=1;exitX=0.5;exitY=1;exitDx=0;exitDy=0;entryX=0.5;entryY=0;entryDx=0;entryDy=0;dashed=1;" edge="1" parent="1" source="SfBJ0q2UiW4gp2E3zM0G-56" target="SfBJ0q2UiW4gp2E3zM0G-37">
          <mxGeometry width="50" height="50" relative="1" as="geometry">
            <mxPoint x="-193.5" y="608" as="sourcePoint" />
            <mxPoint x="-143.5" y="558" as="targetPoint" />
          </mxGeometry>
        </mxCell>
        <mxCell id="SfBJ0q2UiW4gp2E3zM0G-58" value="byPass" style="whiteSpace=wrap;html=1;labelBackgroundColor=#FFFFFF;strokeWidth=1;fontFamily=Helvetica;fontSize=12;fontColor=#3333FF;strokeColor=none;fillColor=none;" vertex="1" parent="1">
          <mxGeometry x="-464.5" y="473" width="64" height="22" as="geometry" />
        </mxCell>
        <mxCell id="SfBJ0q2UiW4gp2E3zM0G-59" style="edgeStyle=orthogonalEdgeStyle;rounded=0;orthogonalLoop=1;jettySize=auto;html=1;exitX=0.5;exitY=1;exitDx=0;exitDy=0;strokeColor=#6F0000;strokeWidth=0.5;fontFamily=Helvetica;fontSize=10;fillColor=#a20025;curved=1;entryX=0.902;entryY=0.01;entryDx=0;entryDy=0;entryPerimeter=0;" edge="1" parent="1" source="SfBJ0q2UiW4gp2E3zM0G-37" target="SfBJ0q2UiW4gp2E3zM0G-40">
          <mxGeometry relative="1" as="geometry">
            <mxPoint x="-905" y="684" as="sourcePoint" />
            <mxPoint x="-1140" y="817" as="targetPoint" />
            <Array as="points">
              <mxPoint x="-458" y="600" />
              <mxPoint x="-1126" y="600" />
            </Array>
          </mxGeometry>
        </mxCell>
        <mxCell id="SfBJ0q2UiW4gp2E3zM0G-60" value="Gitlab&lt;br&gt;&lt;i&gt;&lt;b&gt;&lt;font color=&quot;#990000&quot;&gt;pScm1&amp;nbsp; : 172.17.147.43&lt;/font&gt;&lt;/b&gt;&lt;/i&gt;" style="rounded=0;whiteSpace=wrap;html=1;fontFamily=Garamond;fontSize=8;verticalAlign=top;spacingTop=-4;strokeWidth=1;" vertex="1" parent="1">
          <mxGeometry x="-126" y="260" width="102" height="50.11" as="geometry" />
        </mxCell>
        <mxCell id="SfBJ0q2UiW4gp2E3zM0G-61" value="" style="shape=image;html=1;verticalAlign=top;verticalLabelPosition=bottom;labelBackgroundColor=none;imageAspect=0;aspect=fixed;image=https://cdn4.iconfinder.com/data/icons/socialcones/508/Gitlab-128.png;strokeWidth=1;fontFamily=Helvetica;fontSize=2;fontColor=#FFFFFF;fillColor=none;clipPath=inset(14.06% 10.94% 22.66% 10.94%);" vertex="1" parent="1">
          <mxGeometry x="-83" y="287.11" width="24.69" height="20" as="geometry" />
        </mxCell>
        <mxCell id="SfBJ0q2UiW4gp2E3zM0G-62" value="Text" style="text;html=1;align=center;verticalAlign=middle;resizable=0;points=[];autosize=1;strokeColor=none;fillColor=none;fontSize=2;fontFamily=Helvetica;fontColor=#FFFFFF;labelBackgroundColor=none;strokeWidth=1;" vertex="1" parent="1">
          <mxGeometry x="-170" y="545" width="40" height="20" as="geometry" />
        </mxCell>
        <mxCell id="SfBJ0q2UiW4gp2E3zM0G-63" value="" style="curved=1;endArrow=classic;html=1;rounded=0;strokeColor=#FFA673;strokeWidth=0.5;fontFamily=Helvetica;fontSize=2;fontColor=#FFFFFF;endFill=1;exitX=0;exitY=0.5;exitDx=0;exitDy=0;entryX=0;entryY=0.5;entryDx=0;entryDy=0;fillColor=#fa6800;" edge="1" parent="1" source="SfBJ0q2UiW4gp2E3zM0G-6" target="SfBJ0q2UiW4gp2E3zM0G-60">
          <mxGeometry width="50" height="50" relative="1" as="geometry">
            <mxPoint x="-1186" y="1041.03" as="sourcePoint" />
            <mxPoint x="-1136" y="991.03" as="targetPoint" />
            <Array as="points">
              <mxPoint x="-220" y="520" />
            </Array>
          </mxGeometry>
        </mxCell>
        <mxCell id="SfBJ0q2UiW4gp2E3zM0G-64" value="구성정보에 대한 &lt;br&gt;yml 형상관리 가능??" style="whiteSpace=wrap;html=1;labelBackgroundColor=#FFFFFF;strokeWidth=1;fontFamily=Helvetica;fontSize=12;fontColor=#3333FF;strokeColor=none;fillColor=none;" vertex="1" parent="1">
          <mxGeometry x="-44" y="290.11" width="104" height="22" as="geometry" />
        </mxCell>
        <mxCell id="SfBJ0q2UiW4gp2E3zM0G-65" value="" style="sketch=0;html=1;dashed=0;whitespace=wrap;fillColor=#2875E2;strokeColor=#ffffff;points=[[0.005,0.63,0],[0.1,0.2,0],[0.9,0.2,0],[0.5,0,0],[0.995,0.63,0],[0.72,0.99,0],[0.5,1,0],[0.28,0.99,0]];verticalLabelPosition=bottom;align=center;verticalAlign=top;shape=mxgraph.kubernetes.icon;prIcon=pod;labelBackgroundColor=#FFFFFF;strokeWidth=1;fontFamily=Helvetica;fontSize=2;fontColor=#3333FF;opacity=50;" vertex="1" parent="1">
          <mxGeometry x="-662.5" y="940.75" width="110" height="100" as="geometry" />
        </mxCell>
        <mxCell id="SfBJ0q2UiW4gp2E3zM0G-66" value="" style="group" vertex="1" connectable="0" parent="1">
          <mxGeometry x="-622.5" y="949" width="70" height="71.25" as="geometry" />
        </mxCell>
        <mxCell id="SfBJ0q2UiW4gp2E3zM0G-67" value="Image Registry&lt;br&gt;(harbor-app)" style="rounded=0;whiteSpace=wrap;html=1;fontFamily=Garamond;fontSize=8;verticalAlign=top;spacingTop=-4;strokeWidth=1;" vertex="1" parent="SfBJ0q2UiW4gp2E3zM0G-66">
          <mxGeometry x="-20" y="21.75" width="70" height="48.5" as="geometry" />
        </mxCell>
        <mxCell id="SfBJ0q2UiW4gp2E3zM0G-68" value="" style="shape=image;verticalLabelPosition=bottom;labelBackgroundColor=default;verticalAlign=top;aspect=fixed;imageAspect=0;image=https://blog.zwindler.fr/2017/10/harbor.png;" vertex="1" parent="SfBJ0q2UiW4gp2E3zM0G-66">
          <mxGeometry x="-23.17999999999995" y="45.25" width="73.18" height="26" as="geometry" />
        </mxCell>
        <mxCell id="SfBJ0q2UiW4gp2E3zM0G-69" value="" style="curved=1;endArrow=none;html=1;rounded=0;strokeColor=#2828C7;strokeWidth=0.5;fontFamily=Helvetica;fontSize=2;fontColor=#000000;entryX=0;entryY=0;entryDx=0;entryDy=0;startArrow=classic;startFill=1;endFill=0;exitX=0;exitY=0.5;exitDx=0;exitDy=0;" edge="1" parent="1" source="SfBJ0q2UiW4gp2E3zM0G-46" target="SfBJ0q2UiW4gp2E3zM0G-215">
          <mxGeometry width="50" height="50" relative="1" as="geometry">
            <mxPoint x="-850" y="217.25" as="sourcePoint" />
            <mxPoint x="-1050" y="-325.75" as="targetPoint" />
            <Array as="points">
              <mxPoint x="-1390" y="680" />
              <mxPoint x="-1360" y="290" />
            </Array>
          </mxGeometry>
        </mxCell>
        <mxCell id="SfBJ0q2UiW4gp2E3zM0G-70" value="etcd-docker image&lt;br&gt;pulling&amp;nbsp;" style="whiteSpace=wrap;html=1;labelBackgroundColor=#FFFFFF;strokeWidth=1;fontFamily=Helvetica;fontSize=12;fontColor=#3333FF;strokeColor=none;fillColor=none;" vertex="1" parent="1">
          <mxGeometry x="-1404" y="660" width="130" height="22" as="geometry" />
        </mxCell>
        <mxCell id="SfBJ0q2UiW4gp2E3zM0G-71" value="https://avi.cjenm.com/" style="rounded=1;whiteSpace=wrap;html=1;labelBackgroundColor=none;strokeColor=#666666;strokeWidth=1;fontFamily=Helvetica;fontSize=10;fontColor=#666666;fillColor=#FFFFFF;spacing=0;spacingBottom=3;" vertex="1" parent="1">
          <mxGeometry x="-419.5" y="532" width="108" height="17" as="geometry" />
        </mxCell>
        <mxCell id="SfBJ0q2UiW4gp2E3zM0G-72" value="&lt;font style=&quot;font-size: 9px;&quot;&gt;VIP : 172.17.167.20&lt;/font&gt;" style="rounded=1;whiteSpace=wrap;html=1;labelBackgroundColor=none;strokeColor=#666666;strokeWidth=1;fontFamily=Helvetica;fontSize=7;fontColor=#FFFFFF;fillColor=#666666;spacing=0;spacingBottom=3;" vertex="1" parent="1">
          <mxGeometry x="-1128" y="721.03" width="98" height="17" as="geometry" />
        </mxCell>
        <mxCell id="SfBJ0q2UiW4gp2E3zM0G-73" value="" style="group" vertex="1" connectable="0" parent="1">
          <mxGeometry x="-896" y="1025.47" width="66" height="52" as="geometry" />
        </mxCell>
        <mxCell id="SfBJ0q2UiW4gp2E3zM0G-74" value="CI/CD" style="rounded=0;whiteSpace=wrap;html=1;fontFamily=Garamond;fontSize=8;verticalAlign=top;spacingTop=-4;strokeWidth=1;" vertex="1" parent="SfBJ0q2UiW4gp2E3zM0G-73">
          <mxGeometry width="66" height="52" as="geometry" />
        </mxCell>
        <mxCell id="SfBJ0q2UiW4gp2E3zM0G-75" value="" style="shape=image;verticalLabelPosition=bottom;labelBackgroundColor=default;verticalAlign=top;aspect=fixed;imageAspect=0;image=https://images.velog.io/images/sgwon1996/post/5bbba224-981f-4ac9-84ab-ab30f8149468/Untitled%20(24).png;clipPath=inset(0% 22% 0% 21%);" vertex="1" parent="SfBJ0q2UiW4gp2E3zM0G-73">
          <mxGeometry x="18.66999999999996" y="17.333333333333336" width="26.58066666666667" height="28.6" as="geometry" />
        </mxCell>
        <mxCell id="SfBJ0q2UiW4gp2E3zM0G-76" value="DEV&lt;br&gt;HCI" style="rounded=0;whiteSpace=wrap;html=1;labelBackgroundColor=none;strokeColor=none;strokeWidth=1;fontFamily=Helvetica;fontSize=12;fontColor=#FFFFFF;fillColor=#004C99;direction=south;" vertex="1" parent="1">
          <mxGeometry x="-1490" y="480" width="30" height="650" as="geometry" />
        </mxCell>
        <mxCell id="SfBJ0q2UiW4gp2E3zM0G-77" value="ERP&lt;br&gt;HCI" style="rounded=0;whiteSpace=wrap;html=1;labelBackgroundColor=none;strokeColor=none;strokeWidth=1;fontFamily=Helvetica;fontSize=12;fontColor=#FFFFFF;fillColor=#004C99;direction=south;" vertex="1" parent="1">
          <mxGeometry x="-1490" y="100" width="30" height="235.25" as="geometry" />
        </mxCell>
        <mxCell id="SfBJ0q2UiW4gp2E3zM0G-78" value="" style="sketch=0;html=1;dashed=0;whitespace=wrap;fillColor=#2875E2;strokeColor=#ffffff;points=[[0.005,0.63,0],[0.1,0.2,0],[0.9,0.2,0],[0.5,0,0],[0.995,0.63,0],[0.72,0.99,0],[0.5,1,0],[0.28,0.99,0]];verticalLabelPosition=bottom;align=center;verticalAlign=top;shape=mxgraph.kubernetes.icon;prIcon=pod;labelBackgroundColor=#FFFFFF;strokeWidth=1;fontFamily=Helvetica;fontSize=2;fontColor=#3333FF;opacity=50;" vertex="1" parent="1">
          <mxGeometry x="261" y="768" width="110" height="100" as="geometry" />
        </mxCell>
        <mxCell id="SfBJ0q2UiW4gp2E3zM0G-79" value="" style="group" vertex="1" connectable="0" parent="1">
          <mxGeometry x="281" y="798" width="70" height="48.5" as="geometry" />
        </mxCell>
        <mxCell id="SfBJ0q2UiW4gp2E3zM0G-80" value="백업및복구 도구" style="rounded=0;whiteSpace=wrap;html=1;fontFamily=Garamond;fontSize=8;verticalAlign=top;spacingTop=-4;strokeWidth=1;" vertex="1" parent="SfBJ0q2UiW4gp2E3zM0G-79">
          <mxGeometry y="3" width="70" height="36.5" as="geometry" />
        </mxCell>
        <mxCell id="SfBJ0q2UiW4gp2E3zM0G-81" value="" style="shape=image;verticalLabelPosition=bottom;labelBackgroundColor=default;verticalAlign=top;aspect=fixed;imageAspect=0;image=https://velero.io/img/Velero.svg;" vertex="1" parent="SfBJ0q2UiW4gp2E3zM0G-79">
          <mxGeometry x="8.120000000000005" y="15.629999999999995" width="53.76" height="20.25" as="geometry" />
        </mxCell>
        <mxCell id="SfBJ0q2UiW4gp2E3zM0G-82" value="" style="endArrow=none;dashed=1;html=1;rounded=0;strokeColor=#2828C7;strokeWidth=0.5;fontFamily=Helvetica;fontSize=2;fontColor=#FFFFFF;curved=1;exitX=0.9;exitY=0.2;exitDx=0;exitDy=0;exitPerimeter=0;entryX=0.153;entryY=0.21;entryDx=0;entryDy=0;entryPerimeter=0;" edge="1" parent="1" source="SfBJ0q2UiW4gp2E3zM0G-35" target="SfBJ0q2UiW4gp2E3zM0G-78">
          <mxGeometry width="50" height="50" relative="1" as="geometry">
            <mxPoint x="220.0000000000001" y="779" as="sourcePoint" />
            <mxPoint x="335.4299999999997" y="828.05" as="targetPoint" />
          </mxGeometry>
        </mxCell>
        <mxCell id="SfBJ0q2UiW4gp2E3zM0G-83" value="" style="endArrow=none;dashed=1;html=1;rounded=0;strokeColor=#2828C7;strokeWidth=0.5;fontFamily=Helvetica;fontSize=2;fontColor=#FFFFFF;curved=1;entryX=0.091;entryY=0.635;entryDx=0;entryDy=0;entryPerimeter=0;" edge="1" parent="1" source="SfBJ0q2UiW4gp2E3zM0G-35" target="SfBJ0q2UiW4gp2E3zM0G-78">
          <mxGeometry width="50" height="50" relative="1" as="geometry">
            <mxPoint x="209.20000000000005" y="838.5" as="sourcePoint" />
            <mxPoint x="310" y="854" as="targetPoint" />
          </mxGeometry>
        </mxCell>
        <mxCell id="SfBJ0q2UiW4gp2E3zM0G-84" value="" style="group" vertex="1" connectable="0" parent="1">
          <mxGeometry x="-805.5" y="940.47" width="115" height="107" as="geometry" />
        </mxCell>
        <mxCell id="SfBJ0q2UiW4gp2E3zM0G-85" value="" style="sketch=0;html=1;dashed=0;whitespace=wrap;fillColor=#2875E2;strokeColor=#ffffff;points=[[0.005,0.63,0],[0.1,0.2,0],[0.9,0.2,0],[0.5,0,0],[0.995,0.63,0],[0.72,0.99,0],[0.5,1,0],[0.28,0.99,0]];verticalLabelPosition=bottom;align=center;verticalAlign=top;shape=mxgraph.kubernetes.icon;prIcon=pod;labelBackgroundColor=#FFFFFF;strokeWidth=1;fontFamily=Helvetica;fontSize=2;fontColor=#3333FF;opacity=50;" vertex="1" parent="SfBJ0q2UiW4gp2E3zM0G-84">
          <mxGeometry width="110" height="100" as="geometry" />
        </mxCell>
        <mxCell id="SfBJ0q2UiW4gp2E3zM0G-86" value="" style="group;fontSize=16;" vertex="1" connectable="0" parent="SfBJ0q2UiW4gp2E3zM0G-84">
          <mxGeometry x="20" y="40.25" width="70" height="29" as="geometry" />
        </mxCell>
        <mxCell id="SfBJ0q2UiW4gp2E3zM0G-87" value="&lt;font style=&quot;font-size: 11px;&quot;&gt;Tanzu App Platform&lt;br&gt;&lt;font color=&quot;#cc0000&quot;&gt;&lt;i&gt;[VIEW]&lt;/i&gt;&lt;/font&gt;&lt;br&gt;&lt;/font&gt;" style="rounded=0;whiteSpace=wrap;html=1;fontFamily=Garamond;fontSize=8;verticalAlign=top;spacingTop=-4;strokeWidth=1;" vertex="1" parent="SfBJ0q2UiW4gp2E3zM0G-86">
          <mxGeometry y="-10" width="70" height="47" as="geometry" />
        </mxCell>
        <mxCell id="SfBJ0q2UiW4gp2E3zM0G-88" value="https://dev-tap.cjenm.com" style="rounded=1;whiteSpace=wrap;html=1;labelBackgroundColor=none;strokeColor=#666666;strokeWidth=1;fontFamily=Helvetica;fontSize=10;fontColor=#666666;fillColor=#FFFFFF;spacing=0;spacingBottom=3;" vertex="1" parent="SfBJ0q2UiW4gp2E3zM0G-84">
          <mxGeometry x="-5" y="90" width="120" height="17" as="geometry" />
        </mxCell>
        <mxCell id="SfBJ0q2UiW4gp2E3zM0G-89" value="Bastion Host&lt;br&gt;&lt;b style=&quot;font-style: italic;&quot;&gt;t&lt;font color=&quot;#990000&quot;&gt;anzu-jumphost&lt;/font&gt;&lt;/b&gt;" style="rounded=0;whiteSpace=wrap;html=1;fontFamily=Garamond;fontSize=8;verticalAlign=top;spacingTop=-4;strokeWidth=1;" vertex="1" parent="1">
          <mxGeometry x="-1296" y="513" width="96" height="32" as="geometry" />
        </mxCell>
        <mxCell id="SfBJ0q2UiW4gp2E3zM0G-90" value="" style="group" vertex="1" connectable="0" parent="1">
          <mxGeometry x="-1059.5" y="-110" width="310" height="167" as="geometry" />
        </mxCell>
        <mxCell id="SfBJ0q2UiW4gp2E3zM0G-91" value="" style="ellipse;shape=cloud;whiteSpace=wrap;html=1;fontSize=12;" vertex="1" parent="SfBJ0q2UiW4gp2E3zM0G-90">
          <mxGeometry width="310" height="167" as="geometry" />
        </mxCell>
        <mxCell id="SfBJ0q2UiW4gp2E3zM0G-92" value="&lt;span style=&quot;font-family: Garamond; font-size: 12px;&quot;&gt;Tanzu Misson Controll&lt;/span&gt;&lt;span style=&quot;font-family: Garamond; font-size: 12px;&quot;&gt;(TMC)&lt;br&gt;[SaaS]&lt;br&gt;&lt;/span&gt;" style="rounded=1;whiteSpace=wrap;html=1;verticalAlign=top;fontSize=12;fillColor=#f5f5f5;strokeColor=#666666;fontColor=#333333;" vertex="1" parent="SfBJ0q2UiW4gp2E3zM0G-90">
          <mxGeometry x="93" y="40.5" width="148" height="86" as="geometry" />
        </mxCell>
        <mxCell id="SfBJ0q2UiW4gp2E3zM0G-93" value="" style="shape=image;verticalLabelPosition=bottom;labelBackgroundColor=default;verticalAlign=top;aspect=fixed;imageAspect=0;image=https://sterling.com/wp-content/uploads/2020/10/Tanzu-Mission-Control-Header-2.jpg;imageBackground=default;" vertex="1" parent="SfBJ0q2UiW4gp2E3zM0G-90">
          <mxGeometry x="134.11" y="80" width="61.97" height="40.5" as="geometry" />
        </mxCell>
        <mxCell id="SfBJ0q2UiW4gp2E3zM0G-94" value="" style="shape=actor;whiteSpace=wrap;html=1;fontColor=#808080;fillColor=#808080;" vertex="1" parent="1">
          <mxGeometry x="-1578" y="343.75" width="40" height="42.5" as="geometry" />
        </mxCell>
        <mxCell id="SfBJ0q2UiW4gp2E3zM0G-95" value="developer" style="whiteSpace=wrap;html=1;labelBackgroundColor=#FFFFFF;strokeWidth=1;fontFamily=Helvetica;fontSize=12;fontColor=#000000;strokeColor=none;fillColor=none;" vertex="1" parent="1">
          <mxGeometry x="-1590" y="386.25" width="64" height="22" as="geometry" />
        </mxCell>
        <mxCell id="SfBJ0q2UiW4gp2E3zM0G-96" value="" style="shape=actor;whiteSpace=wrap;html=1;fontColor=#808080;fillColor=#FFD966;" vertex="1" parent="1">
          <mxGeometry x="-1578" y="416.5" width="40" height="42.5" as="geometry" />
        </mxCell>
        <mxCell id="SfBJ0q2UiW4gp2E3zM0G-97" value="administrator" style="whiteSpace=wrap;html=1;labelBackgroundColor=#FFFFFF;strokeWidth=1;fontFamily=Helvetica;fontSize=12;fontColor=#000000;strokeColor=none;fillColor=none;" vertex="1" parent="1">
          <mxGeometry x="-1590" y="459" width="64" height="22" as="geometry" />
        </mxCell>
        <mxCell id="SfBJ0q2UiW4gp2E3zM0G-98" value="" style="endArrow=classic;html=1;rounded=0;dashed=1;strokeColor=#808080;fontColor=#808080;exitX=1;exitY=0.75;exitDx=0;exitDy=0;entryX=0;entryY=0;entryDx=0;entryDy=0;" edge="1" parent="1" source="SfBJ0q2UiW4gp2E3zM0G-96" target="SfBJ0q2UiW4gp2E3zM0G-89">
          <mxGeometry relative="1" as="geometry">
            <mxPoint x="-950" y="260" as="sourcePoint" />
            <mxPoint x="-1380" y="240" as="targetPoint" />
          </mxGeometry>
        </mxCell>
        <mxCell id="SfBJ0q2UiW4gp2E3zM0G-99" value="&lt;font&gt;서버 정보 접근&lt;/font&gt;" style="edgeLabel;resizable=0;html=1;align=center;verticalAlign=middle;fontColor=#808080;fillColor=#FFD966;" connectable="0" vertex="1" parent="SfBJ0q2UiW4gp2E3zM0G-98">
          <mxGeometry relative="1" as="geometry">
            <mxPoint x="-58" y="-14" as="offset" />
          </mxGeometry>
        </mxCell>
        <mxCell id="SfBJ0q2UiW4gp2E3zM0G-100" value="" style="endArrow=classic;html=1;rounded=0;dashed=1;strokeColor=#999999;fontColor=#CC0066;exitX=0.5;exitY=1;exitDx=0;exitDy=0;" edge="1" parent="1" source="SfBJ0q2UiW4gp2E3zM0G-89" target="SfBJ0q2UiW4gp2E3zM0G-39">
          <mxGeometry relative="1" as="geometry">
            <mxPoint x="-1475" y="641.005" as="sourcePoint" />
            <mxPoint x="-1310" y="725.38" as="targetPoint" />
          </mxGeometry>
        </mxCell>
        <mxCell id="SfBJ0q2UiW4gp2E3zM0G-101" value="&lt;font&gt;서버 접근&amp;nbsp;&lt;/font&gt;" style="edgeLabel;resizable=0;html=1;align=center;verticalAlign=middle;fontColor=#808080;fillColor=#FFD966;" connectable="0" vertex="1" parent="SfBJ0q2UiW4gp2E3zM0G-100">
          <mxGeometry relative="1" as="geometry">
            <mxPoint x="-17" y="-46" as="offset" />
          </mxGeometry>
        </mxCell>
        <mxCell id="SfBJ0q2UiW4gp2E3zM0G-102" value="" style="endArrow=classic;html=1;rounded=0;dashed=1;strokeColor=#999999;fontColor=#CC0066;exitX=0.5;exitY=1;exitDx=0;exitDy=0;entryX=0.25;entryY=0;entryDx=0;entryDy=0;" edge="1" parent="1" source="SfBJ0q2UiW4gp2E3zM0G-89" target="SfBJ0q2UiW4gp2E3zM0G-106">
          <mxGeometry relative="1" as="geometry">
            <mxPoint x="-1335" y="651" as="sourcePoint" />
            <mxPoint x="-1040" y="700" as="targetPoint" />
          </mxGeometry>
        </mxCell>
        <mxCell id="SfBJ0q2UiW4gp2E3zM0G-103" value="&lt;font&gt;서버 접근&amp;nbsp;&lt;br&gt;&lt;/font&gt;" style="edgeLabel;resizable=0;html=1;align=center;verticalAlign=middle;fontColor=#808080;fillColor=#FFD966;" connectable="0" vertex="1" parent="SfBJ0q2UiW4gp2E3zM0G-102">
          <mxGeometry relative="1" as="geometry">
            <mxPoint x="-84" y="-41" as="offset" />
          </mxGeometry>
        </mxCell>
        <mxCell id="SfBJ0q2UiW4gp2E3zM0G-104" value="&lt;span style=&quot;&quot;&gt;&lt;font&gt;서비스 별 분리 (경영지원, 미디어)&lt;/font&gt;&lt;/span&gt;" style="whiteSpace=wrap;html=1;labelBackgroundColor=none;strokeWidth=1;fontFamily=Helvetica;fontSize=12;fontColor=#333333;strokeColor=#666666;fillColor=#f5f5f5;fontStyle=1;rotation=0;" vertex="1" parent="1">
          <mxGeometry x="150" y="901" width="180" height="20" as="geometry" />
        </mxCell>
        <mxCell id="SfBJ0q2UiW4gp2E3zM0G-105" value="" style="edgeStyle=elbowEdgeStyle;elbow=vertical;startArrow=none;endArrow=none;rounded=0;dashed=1;strokeColor=#7F00FF;fontColor=#000000;exitX=0.5;exitY=1;exitDx=0;exitDy=0;" edge="1" parent="1" source="SfBJ0q2UiW4gp2E3zM0G-87">
          <mxGeometry relative="1" as="geometry">
            <mxPoint x="-959.5" y="879.47" as="sourcePoint" />
            <Array as="points">
              <mxPoint x="-719.5" y="1059.47" />
            </Array>
            <mxPoint x="-815" y="1051" as="targetPoint" />
          </mxGeometry>
        </mxCell>
        <mxCell id="SfBJ0q2UiW4gp2E3zM0G-106" value="공통 클러스터" style="swimlane;fontFamily=Helvetica;fontSize=10;align=left;spacingLeft=13;" vertex="1" parent="1">
          <mxGeometry x="-1020" y="716.5" width="407" height="197.5" as="geometry" />
        </mxCell>
        <mxCell id="SfBJ0q2UiW4gp2E3zM0G-107" value="&lt;font style=&quot;font-size: 10px;&quot;&gt;Master node2 (API server)&lt;br style=&quot;&quot;&gt;&lt;i&gt;&lt;b&gt;&lt;font color=&quot;#990000&quot;&gt;cjenm-tkc01-control-plane&lt;/font&gt;&lt;/b&gt;&lt;/i&gt;&lt;/font&gt;" style="rounded=0;whiteSpace=wrap;html=1;fontFamily=Garamond;fontSize=11;strokeWidth=0.5;verticalAlign=bottom;" vertex="1" parent="SfBJ0q2UiW4gp2E3zM0G-106">
          <mxGeometry x="29" y="50.5" width="138" height="136" as="geometry" />
        </mxCell>
        <mxCell id="SfBJ0q2UiW4gp2E3zM0G-108" value="&lt;font style=&quot;font-size: 10px;&quot;&gt;Master node2 (API server)&lt;br style=&quot;&quot;&gt;&lt;i&gt;&lt;b&gt;&lt;font color=&quot;#990000&quot;&gt;cjenm-tkc01-control-plane&lt;/font&gt;&lt;/b&gt;&lt;/i&gt;&lt;/font&gt;" style="rounded=0;whiteSpace=wrap;html=1;fontFamily=Garamond;fontSize=11;strokeWidth=0.5;verticalAlign=bottom;" vertex="1" parent="SfBJ0q2UiW4gp2E3zM0G-106">
          <mxGeometry x="25" y="46.5" width="138" height="136" as="geometry" />
        </mxCell>
        <mxCell id="SfBJ0q2UiW4gp2E3zM0G-109" value="&lt;font style=&quot;font-size: 10px;&quot;&gt;Master1 (control-plane)&lt;br style=&quot;&quot;&gt;&lt;i&gt;&lt;b&gt;&lt;font color=&quot;#990000&quot;&gt;dcommon-mgt-control-plane&lt;/font&gt;&lt;/b&gt;&lt;/i&gt;&lt;/font&gt;" style="rounded=0;whiteSpace=wrap;html=1;fontFamily=Garamond;fontSize=11;strokeWidth=0.5;verticalAlign=bottom;" vertex="1" parent="SfBJ0q2UiW4gp2E3zM0G-106">
          <mxGeometry x="20" y="40" width="139" height="138" as="geometry" />
        </mxCell>
        <mxCell id="SfBJ0q2UiW4gp2E3zM0G-110" value="" style="shape=image;verticalLabelPosition=bottom;labelBackgroundColor=default;verticalAlign=top;aspect=fixed;imageAspect=0;image=https://raw.githubusercontent.com/cncf/artwork/master/projects/etcd/stacked/color/etcd-stacked-color.png;" vertex="1" parent="SfBJ0q2UiW4gp2E3zM0G-106">
          <mxGeometry x="79.96000000000002" y="125.5" width="20.07" height="22" as="geometry" />
        </mxCell>
        <mxCell id="SfBJ0q2UiW4gp2E3zM0G-111" value="&lt;font style=&quot;font-size: 9px;&quot;&gt;scheduler&lt;br&gt;&lt;/font&gt;" style="rounded=0;whiteSpace=wrap;html=1;fontFamily=Garamond;fontSize=7;verticalAlign=middle;spacingTop=0;strokeWidth=0;" vertex="1" parent="SfBJ0q2UiW4gp2E3zM0G-106">
          <mxGeometry x="25" y="46.5" width="43" height="16" as="geometry" />
        </mxCell>
        <mxCell id="SfBJ0q2UiW4gp2E3zM0G-112" value="&lt;font style=&quot;font-size: 9px;&quot;&gt;kube ctr&lt;br&gt;&lt;/font&gt;" style="rounded=0;whiteSpace=wrap;html=1;fontFamily=Garamond;fontSize=7;verticalAlign=middle;spacingTop=0;strokeWidth=0;" vertex="1" parent="SfBJ0q2UiW4gp2E3zM0G-106">
          <mxGeometry x="70.97000000000003" y="46.5" width="38" height="16" as="geometry" />
        </mxCell>
        <mxCell id="SfBJ0q2UiW4gp2E3zM0G-113" value="&lt;font style=&quot;font-size: 9px;&quot;&gt;cloud ctr&lt;br&gt;&lt;/font&gt;" style="rounded=0;whiteSpace=wrap;html=1;fontFamily=Garamond;fontSize=7;verticalAlign=middle;spacingTop=0;strokeWidth=0;" vertex="1" parent="SfBJ0q2UiW4gp2E3zM0G-106">
          <mxGeometry x="112" y="46.5" width="42" height="16" as="geometry" />
        </mxCell>
        <mxCell id="SfBJ0q2UiW4gp2E3zM0G-114" value="&lt;font style=&quot;font-size: 9px;&quot;&gt;API Server&lt;br&gt;&lt;/font&gt;" style="rounded=0;whiteSpace=wrap;html=1;fontFamily=Garamond;fontSize=7;verticalAlign=middle;spacingTop=0;strokeWidth=0;fillColor=#fa6800;fontColor=#FFFFFF;strokeColor=#C73500;fontStyle=1" vertex="1" parent="SfBJ0q2UiW4gp2E3zM0G-106">
          <mxGeometry x="68.5" y="81.5" width="43" height="24" as="geometry" />
        </mxCell>
        <mxCell id="SfBJ0q2UiW4gp2E3zM0G-115" value="" style="endArrow=classic;html=1;rounded=0;fontFamily=Helvetica;strokeWidth=0.5;curved=1;exitX=1;exitY=0.5;exitDx=0;exitDy=0;entryX=0.002;entryY=0.445;entryDx=0;entryDy=0;entryPerimeter=0;" edge="1" parent="SfBJ0q2UiW4gp2E3zM0G-106" source="SfBJ0q2UiW4gp2E3zM0G-114" target="SfBJ0q2UiW4gp2E3zM0G-123">
          <mxGeometry width="50" height="50" relative="1" as="geometry">
            <mxPoint x="175" y="288.5" as="sourcePoint" />
            <mxPoint x="195" y="278.5" as="targetPoint" />
          </mxGeometry>
        </mxCell>
        <mxCell id="SfBJ0q2UiW4gp2E3zM0G-116" value="" style="endArrow=blockThin;html=1;rounded=0;fontFamily=Helvetica;strokeWidth=0.5;curved=1;strokeColor=#B3B3B3;endFill=1;startArrow=blockThin;startFill=1;entryX=0.5;entryY=1;entryDx=0;entryDy=0;exitX=0.5;exitY=0;exitDx=0;exitDy=0;" edge="1" parent="SfBJ0q2UiW4gp2E3zM0G-106" source="SfBJ0q2UiW4gp2E3zM0G-114" target="SfBJ0q2UiW4gp2E3zM0G-111">
          <mxGeometry width="50" height="50" relative="1" as="geometry">
            <mxPoint x="165" y="278.5" as="sourcePoint" />
            <mxPoint x="185" y="268.5" as="targetPoint" />
          </mxGeometry>
        </mxCell>
        <mxCell id="SfBJ0q2UiW4gp2E3zM0G-117" value="" style="endArrow=blockThin;html=1;rounded=0;fontFamily=Helvetica;strokeWidth=0.5;curved=1;strokeColor=#B3B3B3;endFill=1;startArrow=blockThin;startFill=1;entryX=0.5;entryY=1;entryDx=0;entryDy=0;exitX=0.5;exitY=0;exitDx=0;exitDy=0;" edge="1" parent="SfBJ0q2UiW4gp2E3zM0G-106" source="SfBJ0q2UiW4gp2E3zM0G-114" target="SfBJ0q2UiW4gp2E3zM0G-112">
          <mxGeometry width="50" height="50" relative="1" as="geometry">
            <mxPoint x="90" y="88.5" as="sourcePoint" />
            <mxPoint x="195" y="278.4999999999999" as="targetPoint" />
          </mxGeometry>
        </mxCell>
        <mxCell id="SfBJ0q2UiW4gp2E3zM0G-118" value="" style="endArrow=blockThin;html=1;rounded=0;fontFamily=Helvetica;strokeWidth=0.5;curved=1;strokeColor=#B3B3B3;endFill=1;startArrow=blockThin;startFill=1;entryX=0.5;entryY=1;entryDx=0;entryDy=0;exitX=0.5;exitY=0;exitDx=0;exitDy=0;" edge="1" parent="SfBJ0q2UiW4gp2E3zM0G-106" source="SfBJ0q2UiW4gp2E3zM0G-114" target="SfBJ0q2UiW4gp2E3zM0G-113">
          <mxGeometry width="50" height="50" relative="1" as="geometry">
            <mxPoint x="185" y="298.4999999999999" as="sourcePoint" />
            <mxPoint x="205" y="288.4999999999999" as="targetPoint" />
          </mxGeometry>
        </mxCell>
        <mxCell id="SfBJ0q2UiW4gp2E3zM0G-119" value="" style="endArrow=blockThin;html=1;rounded=0;fontFamily=Helvetica;strokeWidth=0.5;curved=1;strokeColor=#B3B3B3;endFill=1;startArrow=blockThin;startFill=1;entryX=0.5;entryY=1;entryDx=0;entryDy=0;exitX=0.5;exitY=0;exitDx=0;exitDy=0;" edge="1" parent="SfBJ0q2UiW4gp2E3zM0G-106" source="SfBJ0q2UiW4gp2E3zM0G-110" target="SfBJ0q2UiW4gp2E3zM0G-114">
          <mxGeometry width="50" height="50" relative="1" as="geometry">
            <mxPoint x="195" y="308.4999999999999" as="sourcePoint" />
            <mxPoint x="215" y="298.4999999999999" as="targetPoint" />
          </mxGeometry>
        </mxCell>
        <mxCell id="SfBJ0q2UiW4gp2E3zM0G-120" value="" style="group" vertex="1" connectable="0" parent="SfBJ0q2UiW4gp2E3zM0G-106">
          <mxGeometry x="185" y="40" width="192" height="139" as="geometry" />
        </mxCell>
        <mxCell id="SfBJ0q2UiW4gp2E3zM0G-121" value="" style="rounded=0;whiteSpace=wrap;html=1;fontFamily=Garamond;fontSize=10;strokeWidth=0.5;verticalAlign=bottom;" vertex="1" parent="SfBJ0q2UiW4gp2E3zM0G-120">
          <mxGeometry x="13" y="13" width="173" height="120" as="geometry" />
        </mxCell>
        <mxCell id="SfBJ0q2UiW4gp2E3zM0G-122" value="" style="rounded=0;whiteSpace=wrap;html=1;fontFamily=Garamond;fontSize=10;strokeWidth=0.5;verticalAlign=bottom;" vertex="1" parent="SfBJ0q2UiW4gp2E3zM0G-120">
          <mxGeometry x="6" y="7" width="173" height="120" as="geometry" />
        </mxCell>
        <mxCell id="SfBJ0q2UiW4gp2E3zM0G-123" value="Worker node1 (md)&lt;br style=&quot;font-size: 10px;&quot;&gt;&lt;i&gt;&lt;b&gt;&lt;font color=&quot;#990000&quot;&gt;dcommon-mgt-md&lt;/font&gt;&lt;/b&gt;&lt;/i&gt;" style="rounded=0;whiteSpace=wrap;html=1;fontFamily=Garamond;fontSize=10;strokeWidth=0.5;verticalAlign=bottom;" vertex="1" parent="SfBJ0q2UiW4gp2E3zM0G-120">
          <mxGeometry width="172" height="120" as="geometry" />
        </mxCell>
        <mxCell id="SfBJ0q2UiW4gp2E3zM0G-124" value="" style="rounded=1;whiteSpace=wrap;html=1;fontFamily=Helvetica;dashed=1;dashPattern=1 1;strokeWidth=0.5;" vertex="1" parent="SfBJ0q2UiW4gp2E3zM0G-120">
          <mxGeometry x="26" y="6.5" width="120" height="43" as="geometry" />
        </mxCell>
        <mxCell id="SfBJ0q2UiW4gp2E3zM0G-125" value="" style="group" vertex="1" connectable="0" parent="SfBJ0q2UiW4gp2E3zM0G-120">
          <mxGeometry x="97" y="9" width="41" height="37" as="geometry" />
        </mxCell>
        <mxCell id="SfBJ0q2UiW4gp2E3zM0G-126" value="&lt;font style=&quot;font-size: 9px;&quot;&gt;Proxy&lt;/font&gt;" style="rounded=0;whiteSpace=wrap;html=1;fontFamily=Garamond;fontSize=7;verticalAlign=top;spacingTop=-6;strokeWidth=0;" vertex="1" parent="SfBJ0q2UiW4gp2E3zM0G-125">
          <mxGeometry width="41" height="37" as="geometry" />
        </mxCell>
        <mxCell id="SfBJ0q2UiW4gp2E3zM0G-127" value="" style="shape=image;verticalLabelPosition=bottom;labelBackgroundColor=default;verticalAlign=top;aspect=fixed;imageAspect=0;image=https://www.datocms-assets.com/2885/1539054767-consulenvoyhashiblog2400x1200.jpg;clipPath=inset(21.33% 12.33% 18.67% 54.33%);" vertex="1" parent="SfBJ0q2UiW4gp2E3zM0G-125">
          <mxGeometry x="6.380000000000109" y="12" width="27.78" height="25" as="geometry" />
        </mxCell>
        <mxCell id="SfBJ0q2UiW4gp2E3zM0G-128" value="" style="endArrow=classic;startArrow=classic;html=1;rounded=0;fontFamily=Garamond;fontSize=10;dashed=1;fillColor=#1ba1e2;strokeColor=#006EAF;curved=1;exitX=1;exitY=0.5;exitDx=0;exitDy=0;" edge="1" parent="SfBJ0q2UiW4gp2E3zM0G-120" source="SfBJ0q2UiW4gp2E3zM0G-130" target="SfBJ0q2UiW4gp2E3zM0G-126">
          <mxGeometry width="50" height="50" relative="1" as="geometry">
            <mxPoint x="123" y="-17" as="sourcePoint" />
            <mxPoint x="163" y="-17.5" as="targetPoint" />
          </mxGeometry>
        </mxCell>
        <mxCell id="SfBJ0q2UiW4gp2E3zM0G-129" value="" style="group" vertex="1" connectable="0" parent="SfBJ0q2UiW4gp2E3zM0G-120">
          <mxGeometry x="33" y="9.5" width="41" height="44.72" as="geometry" />
        </mxCell>
        <mxCell id="SfBJ0q2UiW4gp2E3zM0G-130" value="&lt;font style=&quot;font-size: 2px;&quot;&gt;Ingress&lt;/font&gt;" style="rounded=0;whiteSpace=wrap;html=1;fontFamily=Garamond;fontSize=2;verticalAlign=top;spacingTop=-6;strokeWidth=0;" vertex="1" parent="SfBJ0q2UiW4gp2E3zM0G-129">
          <mxGeometry width="41" height="37" as="geometry" />
        </mxCell>
        <mxCell id="SfBJ0q2UiW4gp2E3zM0G-131" value="" style="shape=image;verticalLabelPosition=bottom;labelBackgroundColor=default;verticalAlign=top;aspect=fixed;imageAspect=0;image=https://blogs.vmware.com/opensource/files/2022/05/image001.png;" vertex="1" parent="SfBJ0q2UiW4gp2E3zM0G-129">
          <mxGeometry x="3.26" y="11" width="32.74" height="24.72" as="geometry" />
        </mxCell>
        <mxCell id="SfBJ0q2UiW4gp2E3zM0G-132" value="" style="sketch=0;html=1;dashed=0;whitespace=wrap;fillColor=#009600;strokeColor=#ffffff;points=[[0.005,0.63,0],[0.1,0.2,0],[0.9,0.2,0],[0.5,0,0],[0.995,0.63,0],[0.72,0.99,0],[0.5,1,0],[0.28,0.99,0]];verticalLabelPosition=bottom;align=center;verticalAlign=top;shape=mxgraph.kubernetes.icon;prIcon=pod;labelBackgroundColor=#FFFFFF;strokeWidth=1;fontFamily=Helvetica;fontSize=2;fontColor=#3333FF;" vertex="1" parent="SfBJ0q2UiW4gp2E3zM0G-120">
          <mxGeometry x="9" y="67" width="28" height="25" as="geometry" />
        </mxCell>
        <mxCell id="SfBJ0q2UiW4gp2E3zM0G-133" value="" style="sketch=0;html=1;dashed=0;whitespace=wrap;fillColor=#2875E2;strokeColor=#ffffff;points=[[0.005,0.63,0],[0.1,0.2,0],[0.9,0.2,0],[0.5,0,0],[0.995,0.63,0],[0.72,0.99,0],[0.5,1,0],[0.28,0.99,0]];verticalLabelPosition=bottom;align=center;verticalAlign=top;shape=mxgraph.kubernetes.icon;prIcon=pod;labelBackgroundColor=#FFFFFF;strokeWidth=1;fontFamily=Helvetica;fontSize=2;fontColor=#3333FF;" vertex="1" parent="SfBJ0q2UiW4gp2E3zM0G-120">
          <mxGeometry x="40" y="67" width="28" height="25" as="geometry" />
        </mxCell>
        <mxCell id="SfBJ0q2UiW4gp2E3zM0G-134" value="" style="sketch=0;html=1;dashed=0;whitespace=wrap;fillColor=#2875E2;strokeColor=#ffffff;points=[[0.005,0.63,0],[0.1,0.2,0],[0.9,0.2,0],[0.5,0,0],[0.995,0.63,0],[0.72,0.99,0],[0.5,1,0],[0.28,0.99,0]];verticalLabelPosition=bottom;align=center;verticalAlign=top;shape=mxgraph.kubernetes.icon;prIcon=pod;labelBackgroundColor=#FFFFFF;strokeWidth=1;fontFamily=Helvetica;fontSize=2;fontColor=#3333FF;" vertex="1" parent="SfBJ0q2UiW4gp2E3zM0G-120">
          <mxGeometry x="71" y="67" width="28" height="25" as="geometry" />
        </mxCell>
        <mxCell id="SfBJ0q2UiW4gp2E3zM0G-135" value="" style="sketch=0;html=1;dashed=0;whitespace=wrap;fillColor=#2875E2;strokeColor=#ffffff;points=[[0.005,0.63,0],[0.1,0.2,0],[0.9,0.2,0],[0.5,0,0],[0.995,0.63,0],[0.72,0.99,0],[0.5,1,0],[0.28,0.99,0]];verticalLabelPosition=bottom;align=center;verticalAlign=top;shape=mxgraph.kubernetes.icon;prIcon=pod;labelBackgroundColor=#FFFFFF;strokeWidth=1;fontFamily=Helvetica;fontSize=2;fontColor=#3333FF;" vertex="1" parent="SfBJ0q2UiW4gp2E3zM0G-120">
          <mxGeometry x="102" y="67" width="28" height="25" as="geometry" />
        </mxCell>
        <mxCell id="SfBJ0q2UiW4gp2E3zM0G-136" value="" style="curved=1;endArrow=classic;html=1;rounded=0;strokeColor=#006EAF;strokeWidth=0.5;fontFamily=Helvetica;fontSize=10;fillColor=#1ba1e2;exitX=0.5;exitY=1;exitDx=0;exitDy=0;entryX=0.5;entryY=0;entryDx=0;entryDy=0;entryPerimeter=0;dashed=1;" edge="1" parent="SfBJ0q2UiW4gp2E3zM0G-120" source="SfBJ0q2UiW4gp2E3zM0G-126" target="SfBJ0q2UiW4gp2E3zM0G-133">
          <mxGeometry width="50" height="50" relative="1" as="geometry">
            <mxPoint x="102" y="49.5" as="sourcePoint" />
            <mxPoint x="47" y="79.5" as="targetPoint" />
            <Array as="points">
              <mxPoint x="90" y="60" />
              <mxPoint x="70" y="50" />
            </Array>
          </mxGeometry>
        </mxCell>
        <mxCell id="SfBJ0q2UiW4gp2E3zM0G-137" value="" style="sketch=0;html=1;dashed=0;whitespace=wrap;fillColor=#2875E2;strokeColor=#ffffff;points=[[0.005,0.63,0],[0.1,0.2,0],[0.9,0.2,0],[0.5,0,0],[0.995,0.63,0],[0.72,0.99,0],[0.5,1,0],[0.28,0.99,0]];verticalLabelPosition=bottom;align=center;verticalAlign=top;shape=mxgraph.kubernetes.icon;prIcon=pod;labelBackgroundColor=#FFFFFF;strokeWidth=1;fontFamily=Helvetica;fontSize=2;fontColor=#3333FF;" vertex="1" parent="SfBJ0q2UiW4gp2E3zM0G-120">
          <mxGeometry x="134" y="67" width="28" height="25" as="geometry" />
        </mxCell>
        <mxCell id="SfBJ0q2UiW4gp2E3zM0G-138" value="&lt;font style=&quot;font-size: 9px;&quot;&gt;VIP : 172.17.167.11&lt;/font&gt;" style="rounded=1;whiteSpace=wrap;html=1;labelBackgroundColor=none;strokeColor=#666666;strokeWidth=1;fontFamily=Helvetica;fontSize=7;fontColor=#FFFFFF;fillColor=#666666;spacing=0;spacingBottom=3;" vertex="1" parent="SfBJ0q2UiW4gp2E3zM0G-106">
          <mxGeometry x="245.02999999999997" y="3.5" width="98" height="17" as="geometry" />
        </mxCell>
        <mxCell id="SfBJ0q2UiW4gp2E3zM0G-139" style="edgeStyle=orthogonalEdgeStyle;rounded=0;orthogonalLoop=1;jettySize=auto;html=1;strokeColor=#6F0000;strokeWidth=0.5;fontFamily=Helvetica;fontSize=10;fillColor=#a20025;curved=1;entryX=0.5;entryY=0;entryDx=0;entryDy=0;exitX=0.5;exitY=1;exitDx=0;exitDy=0;" edge="1" parent="1" source="SfBJ0q2UiW4gp2E3zM0G-37" target="SfBJ0q2UiW4gp2E3zM0G-126">
          <mxGeometry relative="1" as="geometry">
            <mxPoint x="-342.1199999999999" y="873.1800000000001" as="targetPoint" />
            <mxPoint x="-690" y="690" as="sourcePoint" />
            <Array as="points">
              <mxPoint x="-458" y="640" />
              <mxPoint x="-717" y="640" />
            </Array>
          </mxGeometry>
        </mxCell>
        <mxCell id="SfBJ0q2UiW4gp2E3zM0G-140" value="빌드관리 클러스터" style="swimlane;fontFamily=Helvetica;fontSize=10;align=left;spacingLeft=13;" vertex="1" parent="1">
          <mxGeometry x="-587" y="716.5" width="407" height="197.5" as="geometry" />
        </mxCell>
        <mxCell id="SfBJ0q2UiW4gp2E3zM0G-141" value="&lt;font style=&quot;font-size: 10px;&quot;&gt;Master node2 (API server)&lt;br style=&quot;&quot;&gt;&lt;i&gt;&lt;b&gt;&lt;font color=&quot;#990000&quot;&gt;cjenm-tkc01-control-plane&lt;/font&gt;&lt;/b&gt;&lt;/i&gt;&lt;/font&gt;" style="rounded=0;whiteSpace=wrap;html=1;fontFamily=Garamond;fontSize=11;strokeWidth=0.5;verticalAlign=bottom;" vertex="1" parent="SfBJ0q2UiW4gp2E3zM0G-140">
          <mxGeometry x="29" y="50.5" width="138" height="136" as="geometry" />
        </mxCell>
        <mxCell id="SfBJ0q2UiW4gp2E3zM0G-142" value="&lt;font style=&quot;font-size: 10px;&quot;&gt;Master node2 (API server)&lt;br style=&quot;&quot;&gt;&lt;i&gt;&lt;b&gt;&lt;font color=&quot;#990000&quot;&gt;cjenm-tkc01-control-plane&lt;/font&gt;&lt;/b&gt;&lt;/i&gt;&lt;/font&gt;" style="rounded=0;whiteSpace=wrap;html=1;fontFamily=Garamond;fontSize=11;strokeWidth=0.5;verticalAlign=bottom;" vertex="1" parent="SfBJ0q2UiW4gp2E3zM0G-140">
          <mxGeometry x="25" y="46.5" width="138" height="136" as="geometry" />
        </mxCell>
        <mxCell id="SfBJ0q2UiW4gp2E3zM0G-143" value="&lt;font style=&quot;font-size: 10px;&quot;&gt;Master1 (control-plane)&lt;br style=&quot;&quot;&gt;&lt;i&gt;&lt;b&gt;&lt;font color=&quot;#990000&quot;&gt;dbuild-mgt-control&lt;/font&gt;&lt;/b&gt;&lt;/i&gt;&lt;/font&gt;" style="rounded=0;whiteSpace=wrap;html=1;fontFamily=Garamond;fontSize=11;strokeWidth=0.5;verticalAlign=bottom;" vertex="1" parent="SfBJ0q2UiW4gp2E3zM0G-140">
          <mxGeometry x="20" y="40" width="139" height="138" as="geometry" />
        </mxCell>
        <mxCell id="SfBJ0q2UiW4gp2E3zM0G-144" value="" style="shape=image;verticalLabelPosition=bottom;labelBackgroundColor=default;verticalAlign=top;aspect=fixed;imageAspect=0;image=https://raw.githubusercontent.com/cncf/artwork/master/projects/etcd/stacked/color/etcd-stacked-color.png;" vertex="1" parent="SfBJ0q2UiW4gp2E3zM0G-140">
          <mxGeometry x="79.96000000000002" y="125.5" width="20.07" height="22" as="geometry" />
        </mxCell>
        <mxCell id="SfBJ0q2UiW4gp2E3zM0G-145" value="&lt;font style=&quot;font-size: 9px;&quot;&gt;scheduler&lt;br&gt;&lt;/font&gt;" style="rounded=0;whiteSpace=wrap;html=1;fontFamily=Garamond;fontSize=7;verticalAlign=middle;spacingTop=0;strokeWidth=0;" vertex="1" parent="SfBJ0q2UiW4gp2E3zM0G-140">
          <mxGeometry x="25" y="46.5" width="43" height="16" as="geometry" />
        </mxCell>
        <mxCell id="SfBJ0q2UiW4gp2E3zM0G-146" value="&lt;font style=&quot;font-size: 9px;&quot;&gt;kube ctr&lt;br&gt;&lt;/font&gt;" style="rounded=0;whiteSpace=wrap;html=1;fontFamily=Garamond;fontSize=7;verticalAlign=middle;spacingTop=0;strokeWidth=0;" vertex="1" parent="SfBJ0q2UiW4gp2E3zM0G-140">
          <mxGeometry x="70.97000000000003" y="46.5" width="38" height="16" as="geometry" />
        </mxCell>
        <mxCell id="SfBJ0q2UiW4gp2E3zM0G-147" value="&lt;font style=&quot;font-size: 9px;&quot;&gt;cloud ctr&lt;br&gt;&lt;/font&gt;" style="rounded=0;whiteSpace=wrap;html=1;fontFamily=Garamond;fontSize=7;verticalAlign=middle;spacingTop=0;strokeWidth=0;" vertex="1" parent="SfBJ0q2UiW4gp2E3zM0G-140">
          <mxGeometry x="112" y="46.5" width="42" height="16" as="geometry" />
        </mxCell>
        <mxCell id="SfBJ0q2UiW4gp2E3zM0G-148" value="&lt;font style=&quot;font-size: 9px;&quot;&gt;API Server&lt;br&gt;&lt;/font&gt;" style="rounded=0;whiteSpace=wrap;html=1;fontFamily=Garamond;fontSize=7;verticalAlign=middle;spacingTop=0;strokeWidth=0;fillColor=#fa6800;fontColor=#FFFFFF;strokeColor=#C73500;fontStyle=1" vertex="1" parent="SfBJ0q2UiW4gp2E3zM0G-140">
          <mxGeometry x="68.5" y="81.5" width="43" height="24" as="geometry" />
        </mxCell>
        <mxCell id="SfBJ0q2UiW4gp2E3zM0G-149" value="" style="endArrow=classic;html=1;rounded=0;fontFamily=Helvetica;strokeWidth=0.5;curved=1;exitX=1;exitY=0.5;exitDx=0;exitDy=0;entryX=0.002;entryY=0.445;entryDx=0;entryDy=0;entryPerimeter=0;" edge="1" parent="SfBJ0q2UiW4gp2E3zM0G-140" source="SfBJ0q2UiW4gp2E3zM0G-148" target="SfBJ0q2UiW4gp2E3zM0G-157">
          <mxGeometry width="50" height="50" relative="1" as="geometry">
            <mxPoint x="175" y="288.5" as="sourcePoint" />
            <mxPoint x="195" y="278.5" as="targetPoint" />
          </mxGeometry>
        </mxCell>
        <mxCell id="SfBJ0q2UiW4gp2E3zM0G-150" value="" style="endArrow=blockThin;html=1;rounded=0;fontFamily=Helvetica;strokeWidth=0.5;curved=1;strokeColor=#B3B3B3;endFill=1;startArrow=blockThin;startFill=1;entryX=0.5;entryY=1;entryDx=0;entryDy=0;exitX=0.5;exitY=0;exitDx=0;exitDy=0;" edge="1" parent="SfBJ0q2UiW4gp2E3zM0G-140" source="SfBJ0q2UiW4gp2E3zM0G-148" target="SfBJ0q2UiW4gp2E3zM0G-145">
          <mxGeometry width="50" height="50" relative="1" as="geometry">
            <mxPoint x="165" y="278.5" as="sourcePoint" />
            <mxPoint x="185" y="268.5" as="targetPoint" />
          </mxGeometry>
        </mxCell>
        <mxCell id="SfBJ0q2UiW4gp2E3zM0G-151" value="" style="endArrow=blockThin;html=1;rounded=0;fontFamily=Helvetica;strokeWidth=0.5;curved=1;strokeColor=#B3B3B3;endFill=1;startArrow=blockThin;startFill=1;entryX=0.5;entryY=1;entryDx=0;entryDy=0;exitX=0.5;exitY=0;exitDx=0;exitDy=0;" edge="1" parent="SfBJ0q2UiW4gp2E3zM0G-140" source="SfBJ0q2UiW4gp2E3zM0G-148" target="SfBJ0q2UiW4gp2E3zM0G-146">
          <mxGeometry width="50" height="50" relative="1" as="geometry">
            <mxPoint x="90" y="88.5" as="sourcePoint" />
            <mxPoint x="195" y="278.4999999999999" as="targetPoint" />
          </mxGeometry>
        </mxCell>
        <mxCell id="SfBJ0q2UiW4gp2E3zM0G-152" value="" style="endArrow=blockThin;html=1;rounded=0;fontFamily=Helvetica;strokeWidth=0.5;curved=1;strokeColor=#B3B3B3;endFill=1;startArrow=blockThin;startFill=1;entryX=0.5;entryY=1;entryDx=0;entryDy=0;exitX=0.5;exitY=0;exitDx=0;exitDy=0;" edge="1" parent="SfBJ0q2UiW4gp2E3zM0G-140" source="SfBJ0q2UiW4gp2E3zM0G-148" target="SfBJ0q2UiW4gp2E3zM0G-147">
          <mxGeometry width="50" height="50" relative="1" as="geometry">
            <mxPoint x="185" y="298.4999999999999" as="sourcePoint" />
            <mxPoint x="205" y="288.4999999999999" as="targetPoint" />
          </mxGeometry>
        </mxCell>
        <mxCell id="SfBJ0q2UiW4gp2E3zM0G-153" value="" style="endArrow=blockThin;html=1;rounded=0;fontFamily=Helvetica;strokeWidth=0.5;curved=1;strokeColor=#B3B3B3;endFill=1;startArrow=blockThin;startFill=1;entryX=0.5;entryY=1;entryDx=0;entryDy=0;exitX=0.5;exitY=0;exitDx=0;exitDy=0;" edge="1" parent="SfBJ0q2UiW4gp2E3zM0G-140" source="SfBJ0q2UiW4gp2E3zM0G-144" target="SfBJ0q2UiW4gp2E3zM0G-148">
          <mxGeometry width="50" height="50" relative="1" as="geometry">
            <mxPoint x="195" y="308.4999999999999" as="sourcePoint" />
            <mxPoint x="215" y="298.4999999999999" as="targetPoint" />
          </mxGeometry>
        </mxCell>
        <mxCell id="SfBJ0q2UiW4gp2E3zM0G-154" value="" style="group" vertex="1" connectable="0" parent="SfBJ0q2UiW4gp2E3zM0G-140">
          <mxGeometry x="185" y="40" width="192" height="139" as="geometry" />
        </mxCell>
        <mxCell id="SfBJ0q2UiW4gp2E3zM0G-155" value="" style="rounded=0;whiteSpace=wrap;html=1;fontFamily=Garamond;fontSize=10;strokeWidth=0.5;verticalAlign=bottom;" vertex="1" parent="SfBJ0q2UiW4gp2E3zM0G-154">
          <mxGeometry x="13" y="13" width="173" height="120" as="geometry" />
        </mxCell>
        <mxCell id="SfBJ0q2UiW4gp2E3zM0G-156" value="" style="rounded=0;whiteSpace=wrap;html=1;fontFamily=Garamond;fontSize=10;strokeWidth=0.5;verticalAlign=bottom;" vertex="1" parent="SfBJ0q2UiW4gp2E3zM0G-154">
          <mxGeometry x="6" y="7" width="173" height="120" as="geometry" />
        </mxCell>
        <mxCell id="SfBJ0q2UiW4gp2E3zM0G-157" value="Worker node1 (md)&lt;br style=&quot;font-size: 10px;&quot;&gt;&lt;font color=&quot;#990000&quot;&gt;&lt;b&gt;&lt;i&gt;dbuild-mgt-worker&lt;/i&gt;&lt;/b&gt;&lt;/font&gt;" style="rounded=0;whiteSpace=wrap;html=1;fontFamily=Garamond;fontSize=10;strokeWidth=0.5;verticalAlign=bottom;" vertex="1" parent="SfBJ0q2UiW4gp2E3zM0G-154">
          <mxGeometry width="172" height="120" as="geometry" />
        </mxCell>
        <mxCell id="SfBJ0q2UiW4gp2E3zM0G-158" value="" style="rounded=1;whiteSpace=wrap;html=1;fontFamily=Helvetica;dashed=1;dashPattern=1 1;strokeWidth=0.5;" vertex="1" parent="SfBJ0q2UiW4gp2E3zM0G-154">
          <mxGeometry x="26" y="6.5" width="120" height="43" as="geometry" />
        </mxCell>
        <mxCell id="SfBJ0q2UiW4gp2E3zM0G-159" value="" style="group" vertex="1" connectable="0" parent="SfBJ0q2UiW4gp2E3zM0G-154">
          <mxGeometry x="97" y="9" width="41" height="37" as="geometry" />
        </mxCell>
        <mxCell id="SfBJ0q2UiW4gp2E3zM0G-160" value="&lt;font style=&quot;font-size: 9px;&quot;&gt;Proxy&lt;/font&gt;" style="rounded=0;whiteSpace=wrap;html=1;fontFamily=Garamond;fontSize=7;verticalAlign=top;spacingTop=-6;strokeWidth=0;" vertex="1" parent="SfBJ0q2UiW4gp2E3zM0G-159">
          <mxGeometry width="41" height="37" as="geometry" />
        </mxCell>
        <mxCell id="SfBJ0q2UiW4gp2E3zM0G-161" value="" style="shape=image;verticalLabelPosition=bottom;labelBackgroundColor=default;verticalAlign=top;aspect=fixed;imageAspect=0;image=https://www.datocms-assets.com/2885/1539054767-consulenvoyhashiblog2400x1200.jpg;clipPath=inset(21.33% 12.33% 18.67% 54.33%);" vertex="1" parent="SfBJ0q2UiW4gp2E3zM0G-159">
          <mxGeometry x="6.380000000000109" y="12" width="27.78" height="25" as="geometry" />
        </mxCell>
        <mxCell id="SfBJ0q2UiW4gp2E3zM0G-162" value="" style="endArrow=classic;startArrow=classic;html=1;rounded=0;fontFamily=Garamond;fontSize=10;dashed=1;fillColor=#1ba1e2;strokeColor=#006EAF;curved=1;exitX=1;exitY=0.5;exitDx=0;exitDy=0;" edge="1" parent="SfBJ0q2UiW4gp2E3zM0G-154" source="SfBJ0q2UiW4gp2E3zM0G-164" target="SfBJ0q2UiW4gp2E3zM0G-160">
          <mxGeometry width="50" height="50" relative="1" as="geometry">
            <mxPoint x="123" y="-17" as="sourcePoint" />
            <mxPoint x="163" y="-17.5" as="targetPoint" />
          </mxGeometry>
        </mxCell>
        <mxCell id="SfBJ0q2UiW4gp2E3zM0G-163" value="" style="group" vertex="1" connectable="0" parent="SfBJ0q2UiW4gp2E3zM0G-154">
          <mxGeometry x="33" y="9.5" width="41" height="37" as="geometry" />
        </mxCell>
        <mxCell id="SfBJ0q2UiW4gp2E3zM0G-164" value="&lt;font style=&quot;font-size: 2px;&quot;&gt;Ingress&lt;/font&gt;" style="rounded=0;whiteSpace=wrap;html=1;fontFamily=Garamond;fontSize=2;verticalAlign=top;spacingTop=-6;strokeWidth=0;" vertex="1" parent="SfBJ0q2UiW4gp2E3zM0G-163">
          <mxGeometry width="41" height="37" as="geometry" />
        </mxCell>
        <mxCell id="SfBJ0q2UiW4gp2E3zM0G-165" value="" style="shape=image;verticalLabelPosition=bottom;labelBackgroundColor=default;verticalAlign=top;aspect=fixed;imageAspect=0;image=https://blogs.vmware.com/opensource/files/2022/05/image001.png;" vertex="1" parent="SfBJ0q2UiW4gp2E3zM0G-163">
          <mxGeometry x="5.26" y="13" width="31.79" height="24" as="geometry" />
        </mxCell>
        <mxCell id="SfBJ0q2UiW4gp2E3zM0G-166" value="" style="sketch=0;html=1;dashed=0;whitespace=wrap;fillColor=#009600;strokeColor=#ffffff;points=[[0.005,0.63,0],[0.1,0.2,0],[0.9,0.2,0],[0.5,0,0],[0.995,0.63,0],[0.72,0.99,0],[0.5,1,0],[0.28,0.99,0]];verticalLabelPosition=bottom;align=center;verticalAlign=top;shape=mxgraph.kubernetes.icon;prIcon=pod;labelBackgroundColor=#FFFFFF;strokeWidth=1;fontFamily=Helvetica;fontSize=2;fontColor=#3333FF;" vertex="1" parent="SfBJ0q2UiW4gp2E3zM0G-154">
          <mxGeometry x="9" y="67" width="28" height="25" as="geometry" />
        </mxCell>
        <mxCell id="SfBJ0q2UiW4gp2E3zM0G-167" value="" style="sketch=0;html=1;dashed=0;whitespace=wrap;fillColor=#2875E2;strokeColor=#ffffff;points=[[0.005,0.63,0],[0.1,0.2,0],[0.9,0.2,0],[0.5,0,0],[0.995,0.63,0],[0.72,0.99,0],[0.5,1,0],[0.28,0.99,0]];verticalLabelPosition=bottom;align=center;verticalAlign=top;shape=mxgraph.kubernetes.icon;prIcon=pod;labelBackgroundColor=#FFFFFF;strokeWidth=1;fontFamily=Helvetica;fontSize=2;fontColor=#3333FF;" vertex="1" parent="SfBJ0q2UiW4gp2E3zM0G-154">
          <mxGeometry x="40" y="67" width="28" height="25" as="geometry" />
        </mxCell>
        <mxCell id="SfBJ0q2UiW4gp2E3zM0G-168" value="" style="sketch=0;html=1;dashed=0;whitespace=wrap;fillColor=#2875E2;strokeColor=#ffffff;points=[[0.005,0.63,0],[0.1,0.2,0],[0.9,0.2,0],[0.5,0,0],[0.995,0.63,0],[0.72,0.99,0],[0.5,1,0],[0.28,0.99,0]];verticalLabelPosition=bottom;align=center;verticalAlign=top;shape=mxgraph.kubernetes.icon;prIcon=pod;labelBackgroundColor=#FFFFFF;strokeWidth=1;fontFamily=Helvetica;fontSize=2;fontColor=#3333FF;" vertex="1" parent="SfBJ0q2UiW4gp2E3zM0G-154">
          <mxGeometry x="71" y="67" width="28" height="25" as="geometry" />
        </mxCell>
        <mxCell id="SfBJ0q2UiW4gp2E3zM0G-169" value="" style="sketch=0;html=1;dashed=0;whitespace=wrap;fillColor=#2875E2;strokeColor=#ffffff;points=[[0.005,0.63,0],[0.1,0.2,0],[0.9,0.2,0],[0.5,0,0],[0.995,0.63,0],[0.72,0.99,0],[0.5,1,0],[0.28,0.99,0]];verticalLabelPosition=bottom;align=center;verticalAlign=top;shape=mxgraph.kubernetes.icon;prIcon=pod;labelBackgroundColor=#FFFFFF;strokeWidth=1;fontFamily=Helvetica;fontSize=2;fontColor=#3333FF;" vertex="1" parent="SfBJ0q2UiW4gp2E3zM0G-154">
          <mxGeometry x="102" y="67" width="28" height="25" as="geometry" />
        </mxCell>
        <mxCell id="SfBJ0q2UiW4gp2E3zM0G-170" value="" style="curved=1;endArrow=classic;html=1;rounded=0;strokeColor=#006EAF;strokeWidth=0.5;fontFamily=Helvetica;fontSize=10;fillColor=#1ba1e2;exitX=0.5;exitY=1;exitDx=0;exitDy=0;entryX=0.5;entryY=0;entryDx=0;entryDy=0;entryPerimeter=0;dashed=1;" edge="1" parent="SfBJ0q2UiW4gp2E3zM0G-154" source="SfBJ0q2UiW4gp2E3zM0G-160" target="SfBJ0q2UiW4gp2E3zM0G-167">
          <mxGeometry width="50" height="50" relative="1" as="geometry">
            <mxPoint x="102" y="49.5" as="sourcePoint" />
            <mxPoint x="47" y="79.5" as="targetPoint" />
            <Array as="points">
              <mxPoint x="90" y="60" />
              <mxPoint x="70" y="50" />
            </Array>
          </mxGeometry>
        </mxCell>
        <mxCell id="SfBJ0q2UiW4gp2E3zM0G-171" value="" style="sketch=0;html=1;dashed=0;whitespace=wrap;fillColor=#2875E2;strokeColor=#ffffff;points=[[0.005,0.63,0],[0.1,0.2,0],[0.9,0.2,0],[0.5,0,0],[0.995,0.63,0],[0.72,0.99,0],[0.5,1,0],[0.28,0.99,0]];verticalLabelPosition=bottom;align=center;verticalAlign=top;shape=mxgraph.kubernetes.icon;prIcon=pod;labelBackgroundColor=#FFFFFF;strokeWidth=1;fontFamily=Helvetica;fontSize=2;fontColor=#3333FF;" vertex="1" parent="SfBJ0q2UiW4gp2E3zM0G-154">
          <mxGeometry x="134" y="67" width="28" height="25" as="geometry" />
        </mxCell>
        <mxCell id="SfBJ0q2UiW4gp2E3zM0G-172" value="&lt;font style=&quot;font-size: 9px;&quot;&gt;VIP : 172.17.167.13&lt;/font&gt;" style="rounded=1;whiteSpace=wrap;html=1;labelBackgroundColor=none;strokeColor=#666666;strokeWidth=1;fontFamily=Helvetica;fontSize=7;fontColor=#FFFFFF;fillColor=#666666;spacing=0;spacingBottom=3;" vertex="1" parent="SfBJ0q2UiW4gp2E3zM0G-140">
          <mxGeometry x="245.02999999999997" y="3.5" width="98" height="17" as="geometry" />
        </mxCell>
        <mxCell id="SfBJ0q2UiW4gp2E3zM0G-173" style="edgeStyle=orthogonalEdgeStyle;rounded=0;orthogonalLoop=1;jettySize=auto;html=1;strokeColor=#6F0000;strokeWidth=0.5;fontFamily=Helvetica;fontSize=10;fillColor=#a20025;curved=1;entryX=0.5;entryY=0;entryDx=0;entryDy=0;exitX=0.5;exitY=1;exitDx=0;exitDy=0;" edge="1" parent="1" source="SfBJ0q2UiW4gp2E3zM0G-37" target="SfBJ0q2UiW4gp2E3zM0G-160">
          <mxGeometry relative="1" as="geometry">
            <mxPoint x="-158.5" y="777.5" as="targetPoint" />
            <mxPoint x="-570" y="629.75" as="sourcePoint" />
            <Array as="points">
              <mxPoint x="-458" y="640" />
              <mxPoint x="-284" y="640" />
            </Array>
          </mxGeometry>
        </mxCell>
        <mxCell id="SfBJ0q2UiW4gp2E3zM0G-174" value="" style="endArrow=none;html=1;rounded=0;strokeColor=#009600;fontColor=#CC0066;dashed=1;exitX=0.5;exitY=1;exitDx=0;exitDy=0;fillColor=#60a917;startArrow=classic;startFill=1;endFill=0;entryX=0.5;entryY=0;entryDx=0;entryDy=0;entryPerimeter=0;" edge="1" parent="1" source="SfBJ0q2UiW4gp2E3zM0G-217" target="SfBJ0q2UiW4gp2E3zM0G-30">
          <mxGeometry relative="1" as="geometry">
            <mxPoint x="281" y="190" as="sourcePoint" />
            <mxPoint x="-50" y="320" as="targetPoint" />
            <Array as="points">
              <mxPoint x="-560" y="570" />
              <mxPoint x="-210" y="680" />
              <mxPoint x="20" y="720" />
            </Array>
          </mxGeometry>
        </mxCell>
        <mxCell id="SfBJ0q2UiW4gp2E3zM0G-175" value="&lt;span style=&quot;color: rgb(51, 102, 0);&quot;&gt;오브젝트 정보 sync&lt;br&gt;port : 443&lt;br&gt;&lt;/span&gt;" style="edgeLabel;resizable=0;html=1;align=center;verticalAlign=middle;fontColor=#CC0066;fillColor=#FFD966;" connectable="0" vertex="1" parent="SfBJ0q2UiW4gp2E3zM0G-174">
          <mxGeometry relative="1" as="geometry">
            <mxPoint x="-351" y="-253" as="offset" />
          </mxGeometry>
        </mxCell>
        <mxCell id="SfBJ0q2UiW4gp2E3zM0G-176" value="" style="endArrow=classic;html=1;rounded=0;dashed=1;strokeColor=#999999;fontColor=#CC0066;exitX=0.5;exitY=1;exitDx=0;exitDy=0;entryX=0.113;entryY=-0.001;entryDx=0;entryDy=0;entryPerimeter=0;" edge="1" parent="1" source="SfBJ0q2UiW4gp2E3zM0G-89" target="SfBJ0q2UiW4gp2E3zM0G-140">
          <mxGeometry relative="1" as="geometry">
            <mxPoint x="-1166" y="607" as="sourcePoint" />
            <mxPoint x="-908.25" y="726.5" as="targetPoint" />
          </mxGeometry>
        </mxCell>
        <mxCell id="SfBJ0q2UiW4gp2E3zM0G-177" value="&lt;font&gt;서버 접근&lt;/font&gt;" style="edgeLabel;resizable=0;html=1;align=center;verticalAlign=middle;fontColor=#808080;fillColor=#FFD966;" connectable="0" vertex="1" parent="SfBJ0q2UiW4gp2E3zM0G-176">
          <mxGeometry relative="1" as="geometry">
            <mxPoint x="-218" y="-51" as="offset" />
          </mxGeometry>
        </mxCell>
        <mxCell id="SfBJ0q2UiW4gp2E3zM0G-178" value="" style="endArrow=classic;html=1;rounded=0;dashed=1;strokeColor=#999999;fontColor=#CC0066;exitX=0.929;exitY=0.98;exitDx=0;exitDy=0;exitPerimeter=0;entryX=0.07;entryY=-0.001;entryDx=0;entryDy=0;entryPerimeter=0;" edge="1" parent="1" source="SfBJ0q2UiW4gp2E3zM0G-89" target="SfBJ0q2UiW4gp2E3zM0G-4">
          <mxGeometry relative="1" as="geometry">
            <mxPoint x="-1166" y="607" as="sourcePoint" />
            <mxPoint x="-90" y="720" as="targetPoint" />
          </mxGeometry>
        </mxCell>
        <mxCell id="SfBJ0q2UiW4gp2E3zM0G-179" value="&lt;font&gt;서버 접근&lt;/font&gt;" style="edgeLabel;resizable=0;html=1;align=center;verticalAlign=middle;fontColor=#808080;fillColor=#FFD966;" connectable="0" vertex="1" parent="SfBJ0q2UiW4gp2E3zM0G-178">
          <mxGeometry relative="1" as="geometry">
            <mxPoint x="-416" y="-68" as="offset" />
          </mxGeometry>
        </mxCell>
        <mxCell id="SfBJ0q2UiW4gp2E3zM0G-180" value="" style="endArrow=none;dashed=1;html=1;rounded=0;strokeColor=#2828C7;strokeWidth=0.5;fontFamily=Helvetica;fontSize=2;fontColor=#FFFFFF;curved=1;entryX=0.86;entryY=0.233;entryDx=0;entryDy=0;entryPerimeter=0;exitX=0.72;exitY=0.99;exitDx=0;exitDy=0;exitPerimeter=0;" edge="1" parent="1" source="SfBJ0q2UiW4gp2E3zM0G-137" target="SfBJ0q2UiW4gp2E3zM0G-65">
          <mxGeometry width="50" height="50" relative="1" as="geometry">
            <mxPoint x="-680" y="850" as="sourcePoint" />
            <mxPoint x="304" y="855" as="targetPoint" />
          </mxGeometry>
        </mxCell>
        <mxCell id="SfBJ0q2UiW4gp2E3zM0G-181" value="" style="endArrow=none;dashed=1;html=1;rounded=0;strokeColor=#2828C7;strokeWidth=0.5;fontFamily=Helvetica;fontSize=2;fontColor=#FFFFFF;curved=1;entryX=0.139;entryY=0.228;entryDx=0;entryDy=0;entryPerimeter=0;" edge="1" parent="1" target="SfBJ0q2UiW4gp2E3zM0G-65">
          <mxGeometry width="50" height="50" relative="1" as="geometry">
            <mxPoint x="-690" y="850" as="sourcePoint" />
            <mxPoint x="304" y="775" as="targetPoint" />
          </mxGeometry>
        </mxCell>
        <mxCell id="SfBJ0q2UiW4gp2E3zM0G-182" value="" style="endArrow=none;dashed=1;html=1;rounded=0;strokeColor=#2828C7;strokeWidth=0.5;fontFamily=Helvetica;fontSize=2;fontColor=#FFFFFF;curved=1;entryX=0.16;entryY=0.205;entryDx=0;entryDy=0;entryPerimeter=0;exitX=0.28;exitY=0.99;exitDx=0;exitDy=0;exitPerimeter=0;" edge="1" parent="1" source="SfBJ0q2UiW4gp2E3zM0G-135" target="SfBJ0q2UiW4gp2E3zM0G-85">
          <mxGeometry width="50" height="50" relative="1" as="geometry">
            <mxPoint x="130" y="845" as="sourcePoint" />
            <mxPoint x="190" y="965" as="targetPoint" />
          </mxGeometry>
        </mxCell>
        <mxCell id="SfBJ0q2UiW4gp2E3zM0G-183" value="" style="endArrow=none;dashed=1;html=1;rounded=0;strokeColor=#2828C7;strokeWidth=0.5;fontFamily=Helvetica;fontSize=2;fontColor=#FFFFFF;curved=1;entryX=0.86;entryY=0.23;entryDx=0;entryDy=0;entryPerimeter=0;exitX=0.72;exitY=0.99;exitDx=0;exitDy=0;exitPerimeter=0;" edge="1" parent="1" source="SfBJ0q2UiW4gp2E3zM0G-135" target="SfBJ0q2UiW4gp2E3zM0G-85">
          <mxGeometry width="50" height="50" relative="1" as="geometry">
            <mxPoint x="-810" y="850" as="sourcePoint" />
            <mxPoint x="260" y="935" as="targetPoint" />
          </mxGeometry>
        </mxCell>
        <mxCell id="SfBJ0q2UiW4gp2E3zM0G-184" value="" style="curved=1;endArrow=classic;html=1;rounded=0;strokeColor=#C73500;strokeWidth=0.5;fontFamily=Helvetica;fontSize=2;fontColor=#000000;fillColor=#fa6800;entryX=0;entryY=0.5;entryDx=0;entryDy=0;exitX=0.5;exitY=1;exitDx=0;exitDy=0;" edge="1" parent="1" source="SfBJ0q2UiW4gp2E3zM0G-110" target="SfBJ0q2UiW4gp2E3zM0G-87">
          <mxGeometry width="50" height="50" relative="1" as="geometry">
            <mxPoint x="-50" y="853" as="sourcePoint" />
            <mxPoint x="190" y="950" as="targetPoint" />
            <Array as="points">
              <mxPoint x="-940" y="960" />
            </Array>
          </mxGeometry>
        </mxCell>
        <mxCell id="SfBJ0q2UiW4gp2E3zM0G-185" value="" style="group" vertex="1" connectable="0" parent="1">
          <mxGeometry x="-401.5" y="937.25" width="115" height="107" as="geometry" />
        </mxCell>
        <mxCell id="SfBJ0q2UiW4gp2E3zM0G-186" value="" style="sketch=0;html=1;dashed=0;whitespace=wrap;fillColor=#2875E2;strokeColor=#ffffff;points=[[0.005,0.63,0],[0.1,0.2,0],[0.9,0.2,0],[0.5,0,0],[0.995,0.63,0],[0.72,0.99,0],[0.5,1,0],[0.28,0.99,0]];verticalLabelPosition=bottom;align=center;verticalAlign=top;shape=mxgraph.kubernetes.icon;prIcon=pod;labelBackgroundColor=#FFFFFF;strokeWidth=1;fontFamily=Helvetica;fontSize=2;fontColor=#3333FF;opacity=50;" vertex="1" parent="SfBJ0q2UiW4gp2E3zM0G-185">
          <mxGeometry y="3.5" width="110" height="100" as="geometry" />
        </mxCell>
        <mxCell id="SfBJ0q2UiW4gp2E3zM0G-187" value="" style="group;fontSize=16;" vertex="1" connectable="0" parent="SfBJ0q2UiW4gp2E3zM0G-185">
          <mxGeometry x="20" y="43.75" width="70" height="29" as="geometry" />
        </mxCell>
        <mxCell id="SfBJ0q2UiW4gp2E3zM0G-188" value="&lt;font style=&quot;font-size: 11px;&quot;&gt;Tanzu App Platform&lt;br&gt;&lt;i&gt;[&lt;font color=&quot;#cc0000&quot;&gt;BUILD]&lt;/font&gt;&lt;/i&gt;&lt;br&gt;&lt;/font&gt;" style="rounded=0;whiteSpace=wrap;html=1;fontFamily=Garamond;fontSize=8;verticalAlign=top;spacingTop=-4;strokeWidth=1;" vertex="1" parent="SfBJ0q2UiW4gp2E3zM0G-187">
          <mxGeometry y="-10" width="70" height="47" as="geometry" />
        </mxCell>
        <mxCell id="SfBJ0q2UiW4gp2E3zM0G-189" value="" style="group" vertex="1" connectable="0" parent="1">
          <mxGeometry x="69.5" y="942" width="115" height="107" as="geometry" />
        </mxCell>
        <mxCell id="SfBJ0q2UiW4gp2E3zM0G-190" value="" style="sketch=0;html=1;dashed=0;whitespace=wrap;fillColor=#2875E2;strokeColor=#ffffff;points=[[0.005,0.63,0],[0.1,0.2,0],[0.9,0.2,0],[0.5,0,0],[0.995,0.63,0],[0.72,0.99,0],[0.5,1,0],[0.28,0.99,0]];verticalLabelPosition=bottom;align=center;verticalAlign=top;shape=mxgraph.kubernetes.icon;prIcon=pod;labelBackgroundColor=#FFFFFF;strokeWidth=1;fontFamily=Helvetica;fontSize=2;fontColor=#3333FF;opacity=50;" vertex="1" parent="SfBJ0q2UiW4gp2E3zM0G-189">
          <mxGeometry width="110" height="100" as="geometry" />
        </mxCell>
        <mxCell id="SfBJ0q2UiW4gp2E3zM0G-191" value="" style="group;fontSize=16;" vertex="1" connectable="0" parent="SfBJ0q2UiW4gp2E3zM0G-189">
          <mxGeometry x="20" y="40.25" width="70" height="29" as="geometry" />
        </mxCell>
        <mxCell id="SfBJ0q2UiW4gp2E3zM0G-192" value="&lt;font style=&quot;font-size: 11px;&quot;&gt;Tanzu App Platform&lt;br&gt;&lt;i&gt;&lt;font color=&quot;#cc0000&quot;&gt;[RUN]&lt;/font&gt;&lt;/i&gt;&lt;br&gt;&lt;/font&gt;" style="rounded=0;whiteSpace=wrap;html=1;fontFamily=Garamond;fontSize=8;verticalAlign=top;spacingTop=-4;strokeWidth=1;" vertex="1" parent="SfBJ0q2UiW4gp2E3zM0G-191">
          <mxGeometry y="-10" width="70" height="47" as="geometry" />
        </mxCell>
        <mxCell id="SfBJ0q2UiW4gp2E3zM0G-193" value="" style="endArrow=none;html=1;rounded=0;strokeColor=#009600;fontColor=#CC0066;entryX=0.5;entryY=0;entryDx=0;entryDy=0;dashed=1;startArrow=classic;startFill=1;endFill=0;fillColor=#008a00;exitX=0.5;exitY=1;exitDx=0;exitDy=0;" edge="1" parent="1" source="SfBJ0q2UiW4gp2E3zM0G-217" target="SfBJ0q2UiW4gp2E3zM0G-89">
          <mxGeometry relative="1" as="geometry">
            <mxPoint x="-1030" y="210" as="sourcePoint" />
            <mxPoint x="-1172.5" y="358.5" as="targetPoint" />
          </mxGeometry>
        </mxCell>
        <mxCell id="SfBJ0q2UiW4gp2E3zM0G-194" value="&amp;nbsp; &amp;nbsp;k8s cli 사용자 인증 요청&amp;nbsp;&lt;br&gt;port : 443" style="edgeLabel;resizable=0;html=1;align=center;verticalAlign=middle;fontColor=#006600;fillColor=#FFD966;" connectable="0" vertex="1" parent="SfBJ0q2UiW4gp2E3zM0G-193">
          <mxGeometry relative="1" as="geometry">
            <mxPoint x="1" as="offset" />
          </mxGeometry>
        </mxCell>
        <mxCell id="SfBJ0q2UiW4gp2E3zM0G-195" value="" style="endArrow=none;html=1;rounded=0;strokeColor=#009600;fontColor=#CC0066;dashed=1;startArrow=classic;startFill=1;endFill=0;fillColor=#60a917;entryX=0.5;entryY=0;entryDx=0;entryDy=0;entryPerimeter=0;exitX=0.5;exitY=1;exitDx=0;exitDy=0;" edge="1" parent="1" source="SfBJ0q2UiW4gp2E3zM0G-217" target="SfBJ0q2UiW4gp2E3zM0G-132">
          <mxGeometry relative="1" as="geometry">
            <mxPoint x="-1020" y="200" as="sourcePoint" />
            <mxPoint x="-589" y="60" as="targetPoint" />
            <Array as="points">
              <mxPoint x="-920" y="520" />
            </Array>
          </mxGeometry>
        </mxCell>
        <mxCell id="SfBJ0q2UiW4gp2E3zM0G-196" value="&lt;span style=&quot;color: rgb(51, 102, 0);&quot;&gt;오브젝트 정보 sync&lt;br&gt;port : 443&lt;br&gt;&lt;/span&gt;" style="edgeLabel;resizable=0;html=1;align=center;verticalAlign=middle;fontColor=#CC0066;fillColor=#FFD966;" connectable="0" vertex="1" parent="SfBJ0q2UiW4gp2E3zM0G-195">
          <mxGeometry relative="1" as="geometry">
            <mxPoint x="-52" y="-170" as="offset" />
          </mxGeometry>
        </mxCell>
        <mxCell id="SfBJ0q2UiW4gp2E3zM0G-197" value="" style="curved=1;endArrow=classic;html=1;rounded=0;strokeColor=#C73500;strokeWidth=0.5;fontFamily=Helvetica;fontSize=2;fontColor=#000000;exitX=0;exitY=0.5;exitDx=0;exitDy=0;fillColor=#fa6800;entryX=1;entryY=0.5;entryDx=0;entryDy=0;" edge="1" parent="1" source="SfBJ0q2UiW4gp2E3zM0G-188" target="SfBJ0q2UiW4gp2E3zM0G-67">
          <mxGeometry width="50" height="50" relative="1" as="geometry">
            <mxPoint x="476.5" y="955.03" as="sourcePoint" />
            <mxPoint x="-570.5" y="991" as="targetPoint" />
          </mxGeometry>
        </mxCell>
        <mxCell id="SfBJ0q2UiW4gp2E3zM0G-198" value="" style="curved=1;endArrow=classic;html=1;rounded=0;strokeColor=#C73500;strokeWidth=0.5;fontFamily=Helvetica;fontSize=2;fontColor=#000000;exitX=0.5;exitY=1;exitDx=0;exitDy=0;fillColor=#fa6800;entryX=0.5;entryY=1;entryDx=0;entryDy=0;" edge="1" parent="1" source="SfBJ0q2UiW4gp2E3zM0G-68" target="SfBJ0q2UiW4gp2E3zM0G-192">
          <mxGeometry width="50" height="50" relative="1" as="geometry">
            <mxPoint x="-361.5" y="1064" as="sourcePoint" />
            <mxPoint x="-533.5" y="1064.5" as="targetPoint" />
            <Array as="points">
              <mxPoint x="-230" y="1091" />
            </Array>
          </mxGeometry>
        </mxCell>
        <mxCell id="SfBJ0q2UiW4gp2E3zM0G-199" value="② harbor에 저장된&amp;nbsp;&lt;br&gt;docker image로 RUN" style="whiteSpace=wrap;html=1;labelBackgroundColor=#FFFFFF;strokeWidth=1;fontFamily=Helvetica;fontSize=12;fontColor=#990000;strokeColor=none;fillColor=none;align=left;" vertex="1" parent="1">
          <mxGeometry x="-288" y="1047.47" width="142" height="22" as="geometry" />
        </mxCell>
        <mxCell id="SfBJ0q2UiW4gp2E3zM0G-200" value="" style="endArrow=none;dashed=1;html=1;rounded=0;strokeColor=#2828C7;strokeWidth=0.5;fontFamily=Helvetica;fontSize=2;fontColor=#FFFFFF;curved=1;exitX=0.28;exitY=0.99;exitDx=0;exitDy=0;exitPerimeter=0;entryX=0.145;entryY=0.221;entryDx=0;entryDy=0;entryPerimeter=0;" edge="1" parent="1" source="SfBJ0q2UiW4gp2E3zM0G-167" target="SfBJ0q2UiW4gp2E3zM0G-186">
          <mxGeometry width="50" height="50" relative="1" as="geometry">
            <mxPoint x="-670.8400000000001" y="858.2500000000002" as="sourcePoint" />
            <mxPoint x="-360" y="930" as="targetPoint" />
          </mxGeometry>
        </mxCell>
        <mxCell id="SfBJ0q2UiW4gp2E3zM0G-201" value="" style="endArrow=none;dashed=1;html=1;rounded=0;strokeColor=#2828C7;strokeWidth=0.5;fontFamily=Helvetica;fontSize=2;fontColor=#FFFFFF;curved=1;entryX=0.853;entryY=0.218;entryDx=0;entryDy=0;entryPerimeter=0;exitX=0.72;exitY=0.99;exitDx=0;exitDy=0;exitPerimeter=0;" edge="1" parent="1" source="SfBJ0q2UiW4gp2E3zM0G-167" target="SfBJ0q2UiW4gp2E3zM0G-186">
          <mxGeometry width="50" height="50" relative="1" as="geometry">
            <mxPoint x="-344.1600000000003" y="858.2500000000002" as="sourcePoint" />
            <mxPoint x="-369.9500000000003" y="949.95" as="targetPoint" />
          </mxGeometry>
        </mxCell>
        <mxCell id="SfBJ0q2UiW4gp2E3zM0G-202" value="" style="endArrow=none;dashed=1;html=1;rounded=0;strokeColor=#2828C7;strokeWidth=0.5;fontFamily=Helvetica;fontSize=2;fontColor=#FFFFFF;curved=1;exitX=0.28;exitY=0.99;exitDx=0;exitDy=0;exitPerimeter=0;entryX=0.5;entryY=0;entryDx=0;entryDy=0;entryPerimeter=0;" edge="1" parent="1" source="SfBJ0q2UiW4gp2E3zM0G-32" target="SfBJ0q2UiW4gp2E3zM0G-190">
          <mxGeometry width="50" height="50" relative="1" as="geometry">
            <mxPoint x="59.850000000000136" y="887.3" as="sourcePoint" />
            <mxPoint x="39.99999999999977" y="972" as="targetPoint" />
          </mxGeometry>
        </mxCell>
        <mxCell id="SfBJ0q2UiW4gp2E3zM0G-203" value="" style="endArrow=none;dashed=1;html=1;rounded=0;strokeColor=#2828C7;strokeWidth=0.5;fontFamily=Helvetica;fontSize=2;fontColor=#FFFFFF;curved=1;exitX=0.72;exitY=0.99;exitDx=0;exitDy=0;exitPerimeter=0;entryX=0.86;entryY=0.24;entryDx=0;entryDy=0;entryPerimeter=0;" edge="1" parent="1" source="SfBJ0q2UiW4gp2E3zM0G-32" target="SfBJ0q2UiW4gp2E3zM0G-190">
          <mxGeometry width="50" height="50" relative="1" as="geometry">
            <mxPoint x="127.83999999999969" y="858.25" as="sourcePoint" />
            <mxPoint x="126.01610017889061" y="948" as="targetPoint" />
          </mxGeometry>
        </mxCell>
        <mxCell id="SfBJ0q2UiW4gp2E3zM0G-204" value="① tap을 통해&lt;br&gt;BUILD된 docker image harbor에 백업/저장&amp;nbsp;" style="whiteSpace=wrap;html=1;labelBackgroundColor=#FFFFFF;strokeWidth=1;fontFamily=Helvetica;fontSize=12;fontColor=#990000;strokeColor=none;fillColor=none;align=left;" vertex="1" parent="1">
          <mxGeometry x="-540.5" y="983" width="130" height="22" as="geometry" />
        </mxCell>
        <mxCell id="SfBJ0q2UiW4gp2E3zM0G-205" value="https://dev-harbor.cjenm.com/" style="rounded=1;whiteSpace=wrap;html=1;labelBackgroundColor=none;strokeColor=#666666;strokeWidth=1;fontFamily=Helvetica;fontSize=10;fontColor=#666666;fillColor=#FFFFFF;spacing=0;spacingBottom=3;" vertex="1" parent="1">
          <mxGeometry x="-669.5" y="1030.47" width="146" height="17" as="geometry" />
        </mxCell>
        <mxCell id="SfBJ0q2UiW4gp2E3zM0G-206" value="&lt;span style=&quot;font-family: Helvetica; font-size: 11px; font-style: normal; font-variant-ligatures: normal; font-variant-caps: normal; letter-spacing: normal; orphans: 2; text-indent: 0px; text-transform: none; widows: 2; word-spacing: 0px; -webkit-text-stroke-width: 0px; background-color: rgb(255, 255, 255); text-decoration-thickness: initial; text-decoration-style: initial; text-decoration-color: initial; float: none; display: inline !important;&quot;&gt;port : 80&lt;/span&gt;" style="text;whiteSpace=wrap;html=1;align=center;fontStyle=0;verticalAlign=middle;fontColor=#990000;" vertex="1" parent="1">
          <mxGeometry x="-1107.74" y="695" width="55.47" height="15" as="geometry" />
        </mxCell>
        <mxCell id="SfBJ0q2UiW4gp2E3zM0G-207" value="&lt;span style=&quot;font-family: Helvetica; font-size: 11px; font-style: normal; font-variant-ligatures: normal; font-variant-caps: normal; letter-spacing: normal; orphans: 2; text-indent: 0px; text-transform: none; widows: 2; word-spacing: 0px; -webkit-text-stroke-width: 0px; background-color: rgb(255, 255, 255); text-decoration-thickness: initial; text-decoration-style: initial; text-decoration-color: initial; float: none; display: inline !important;&quot;&gt;port : 80&lt;/span&gt;" style="text;whiteSpace=wrap;html=1;align=center;fontStyle=0;verticalAlign=middle;fontColor=#990000;" vertex="1" parent="1">
          <mxGeometry x="-734.47" y="695" width="55.47" height="15" as="geometry" />
        </mxCell>
        <mxCell id="SfBJ0q2UiW4gp2E3zM0G-208" value="&lt;span style=&quot;font-family: Helvetica; font-size: 11px; font-style: normal; font-variant-ligatures: normal; font-variant-caps: normal; letter-spacing: normal; orphans: 2; text-indent: 0px; text-transform: none; widows: 2; word-spacing: 0px; -webkit-text-stroke-width: 0px; background-color: rgb(255, 255, 255); text-decoration-thickness: initial; text-decoration-style: initial; text-decoration-color: initial; float: none; display: inline !important;&quot;&gt;port : 80&lt;/span&gt;" style="text;whiteSpace=wrap;html=1;align=center;fontStyle=0;verticalAlign=middle;fontColor=#990000;" vertex="1" parent="1">
          <mxGeometry x="-318" y="695" width="55.47" height="15" as="geometry" />
        </mxCell>
        <mxCell id="SfBJ0q2UiW4gp2E3zM0G-209" value="&lt;span style=&quot;font-family: Helvetica; font-size: 11px; font-style: normal; font-variant-ligatures: normal; font-variant-caps: normal; letter-spacing: normal; orphans: 2; text-indent: 0px; text-transform: none; widows: 2; word-spacing: 0px; -webkit-text-stroke-width: 0px; background-color: rgb(255, 255, 255); text-decoration-thickness: initial; text-decoration-style: initial; text-decoration-color: initial; float: none; display: inline !important;&quot;&gt;port : 80&lt;/span&gt;" style="text;whiteSpace=wrap;html=1;align=center;fontStyle=0;verticalAlign=middle;fontColor=#990000;" vertex="1" parent="1">
          <mxGeometry x="119.53" y="695" width="55.47" height="15" as="geometry" />
        </mxCell>
        <mxCell id="SfBJ0q2UiW4gp2E3zM0G-210" value="" style="endArrow=classic;html=1;rounded=0;dashed=1;strokeColor=#808080;fontColor=#CC0066;exitX=1;exitY=0.75;exitDx=0;exitDy=0;entryX=0;entryY=0;entryDx=0;entryDy=0;" edge="1" parent="1" source="SfBJ0q2UiW4gp2E3zM0G-94" target="SfBJ0q2UiW4gp2E3zM0G-89">
          <mxGeometry relative="1" as="geometry">
            <mxPoint x="-1300" y="65.625" as="sourcePoint" />
            <mxPoint x="-1214" y="221" as="targetPoint" />
          </mxGeometry>
        </mxCell>
        <mxCell id="SfBJ0q2UiW4gp2E3zM0G-211" value="&lt;font&gt;서버 정보 접근&lt;/font&gt;" style="edgeLabel;resizable=0;html=1;align=center;verticalAlign=middle;fontColor=#808080;fillColor=#FFD966;" connectable="0" vertex="1" parent="SfBJ0q2UiW4gp2E3zM0G-210">
          <mxGeometry relative="1" as="geometry">
            <mxPoint x="-47" y="-31" as="offset" />
          </mxGeometry>
        </mxCell>
        <mxCell id="SfBJ0q2UiW4gp2E3zM0G-212" value="[VM] 172.17.147.146" style="swimlane;fillColor=#e1d5e7;strokeColor=#9673a6;" vertex="1" parent="1">
          <mxGeometry x="-1200" y="130" width="240" height="140" as="geometry" />
        </mxCell>
        <mxCell id="SfBJ0q2UiW4gp2E3zM0G-213" value="" style="group" vertex="1" connectable="0" parent="SfBJ0q2UiW4gp2E3zM0G-212">
          <mxGeometry x="9.55" y="39.25" width="105.23000000000002" height="100.75" as="geometry" />
        </mxCell>
        <mxCell id="SfBJ0q2UiW4gp2E3zM0G-214" value="&lt;font style=&quot;font-size: 13px;&quot;&gt;Image Registry&lt;br&gt;(harbor-infra)&lt;/font&gt;" style="rounded=0;whiteSpace=wrap;html=1;fontFamily=Garamond;fontSize=8;verticalAlign=top;spacingTop=0;strokeWidth=1;" vertex="1" parent="SfBJ0q2UiW4gp2E3zM0G-213">
          <mxGeometry width="100.45" height="69.75000000000001" as="geometry" />
        </mxCell>
        <mxCell id="SfBJ0q2UiW4gp2E3zM0G-215" value="" style="shape=image;verticalLabelPosition=bottom;labelBackgroundColor=default;verticalAlign=top;aspect=fixed;imageAspect=0;image=https://blog.zwindler.fr/2017/10/harbor.png;" vertex="1" parent="SfBJ0q2UiW4gp2E3zM0G-213">
          <mxGeometry x="-2.2791499999998823" y="31.716340206185567" width="105.01330000000002" height="37.31" as="geometry" />
        </mxCell>
        <mxCell id="SfBJ0q2UiW4gp2E3zM0G-216" value="https://harbor-infra.cjenm.com/" style="rounded=1;whiteSpace=wrap;labelBackgroundColor=none;strokeColor=#666666;strokeWidth=1;fontFamily=Helvetica;fontSize=7;fontColor=#666666;fillColor=#FFFFFF;spacing=0;spacingBottom=4;" vertex="1" parent="SfBJ0q2UiW4gp2E3zM0G-213">
          <mxGeometry x="-2.3799999999999817" y="73.75" width="110" height="23" as="geometry" />
        </mxCell>
        <mxCell id="SfBJ0q2UiW4gp2E3zM0G-217" value="&lt;span style=&quot;font-size: 13px;&quot;&gt;Proxy Server&lt;/span&gt;" style="rounded=0;whiteSpace=wrap;html=1;fontFamily=Garamond;fontSize=8;verticalAlign=top;spacingTop=0;strokeWidth=1;" vertex="1" parent="SfBJ0q2UiW4gp2E3zM0G-212">
          <mxGeometry x="129.26" y="39.25" width="100.45" height="69.75000000000001" as="geometry" />
        </mxCell>
        <mxCell id="SfBJ0q2UiW4gp2E3zM0G-218" value="" style="shape=image;verticalLabelPosition=bottom;labelBackgroundColor=default;verticalAlign=top;aspect=fixed;imageAspect=0;image=https://seankim.life/wp-content/uploads/2019/10/squid.png;" vertex="1" parent="SfBJ0q2UiW4gp2E3zM0G-212">
          <mxGeometry x="133.16000000000008" y="65" width="94.55" height="40" as="geometry" />
        </mxCell>
        <mxCell id="SfBJ0q2UiW4gp2E3zM0G-219" value="" style="endArrow=none;html=1;rounded=0;strokeColor=#009600;fontColor=#CC0066;dashed=1;startArrow=classic;startFill=1;endFill=0;fillColor=#60a917;entryX=0.9;entryY=0.2;entryDx=0;entryDy=0;entryPerimeter=0;" edge="1" parent="1" target="SfBJ0q2UiW4gp2E3zM0G-55">
          <mxGeometry relative="1" as="geometry">
            <mxPoint x="-1020" y="200" as="sourcePoint" />
            <mxPoint x="-890" y="320" as="targetPoint" />
            <Array as="points">
              <mxPoint x="-1020" y="570" />
            </Array>
          </mxGeometry>
        </mxCell>
        <mxCell id="SfBJ0q2UiW4gp2E3zM0G-220" value="오브젝트 정보 sync&lt;br&gt;port : 443" style="edgeLabel;resizable=0;html=1;align=center;verticalAlign=middle;fontColor=#336600;fillColor=#FFD966;" connectable="0" vertex="1" parent="SfBJ0q2UiW4gp2E3zM0G-219">
          <mxGeometry relative="1" as="geometry">
            <mxPoint x="-10" y="-157" as="offset" />
          </mxGeometry>
        </mxCell>
        <mxCell id="SfBJ0q2UiW4gp2E3zM0G-221" value="" style="endArrow=none;html=1;rounded=0;strokeColor=#009600;fontColor=#CC0066;exitX=0.5;exitY=1;exitDx=0;exitDy=0;dashed=1;startArrow=classic;startFill=1;endFill=0;fillColor=#60a917;entryX=0.991;entryY=0.419;entryDx=0;entryDy=0;entryPerimeter=0;" edge="1" parent="1" source="SfBJ0q2UiW4gp2E3zM0G-92" target="SfBJ0q2UiW4gp2E3zM0G-217">
          <mxGeometry relative="1" as="geometry">
            <mxPoint x="-609" y="350" as="sourcePoint" />
            <mxPoint x="-719" y="110" as="targetPoint" />
            <Array as="points">
              <mxPoint x="-910" y="110" />
            </Array>
          </mxGeometry>
        </mxCell>
        <mxCell id="SfBJ0q2UiW4gp2E3zM0G-222" value="사용자cli 인증 요청/&lt;br&gt;오브젝트 정보 sync&lt;br&gt;port : 3128" style="edgeLabel;resizable=0;html=1;align=center;verticalAlign=middle;fontColor=#336600;fillColor=#FFD966;" connectable="0" vertex="1" parent="SfBJ0q2UiW4gp2E3zM0G-221">
          <mxGeometry relative="1" as="geometry">
            <mxPoint x="1" y="-7" as="offset" />
          </mxGeometry>
        </mxCell>
        <mxCell id="SfBJ0q2UiW4gp2E3zM0G-223" value="" style="endArrow=none;html=1;rounded=0;strokeColor=#009600;fontColor=#CC0066;exitX=0.5;exitY=1;exitDx=0;exitDy=0;dashed=1;fillColor=#60a917;startArrow=classic;startFill=1;endFill=0;entryX=0.5;entryY=0;entryDx=0;entryDy=0;entryPerimeter=0;" edge="1" parent="1" source="SfBJ0q2UiW4gp2E3zM0G-217" target="SfBJ0q2UiW4gp2E3zM0G-166">
          <mxGeometry relative="1" as="geometry">
            <mxPoint x="-620.8199999999997" y="174" as="sourcePoint" />
            <mxPoint x="-410" y="690" as="targetPoint" />
            <Array as="points">
              <mxPoint x="-760" y="560" />
              <mxPoint x="-480" y="710" />
              <mxPoint x="-410" y="760" />
            </Array>
          </mxGeometry>
        </mxCell>
        <mxCell id="SfBJ0q2UiW4gp2E3zM0G-224" value="&lt;span style=&quot;color: rgb(51, 102, 0);&quot;&gt;오브젝트 정보 sync&lt;br&gt;port : 443&lt;br&gt;&lt;/span&gt;" style="edgeLabel;resizable=0;html=1;align=center;verticalAlign=middle;fontColor=#CC0066;fillColor=#FFD966;" connectable="0" vertex="1" parent="SfBJ0q2UiW4gp2E3zM0G-223">
          <mxGeometry relative="1" as="geometry">
            <mxPoint x="-133" y="-181" as="offset" />
          </mxGeometry>
        </mxCell>
        <mxCell id="SfBJ0q2UiW4gp2E3zM0G-225" value="&lt;font style=&quot;font-size: 9px;&quot;&gt;VIP : 172.17.167.10&lt;/font&gt;" style="rounded=1;whiteSpace=wrap;html=1;labelBackgroundColor=none;strokeColor=#666666;strokeWidth=1;fontFamily=Helvetica;fontSize=7;fontColor=#FFFFFF;fillColor=#666666;spacing=0;spacingBottom=3;" vertex="1" parent="1">
          <mxGeometry x="-419.25" y="495" width="98" height="17" as="geometry" />
        </mxCell>
      </root>
    </mxGraphModel>
  </diagram>
</mxfile>
